<svg data-cover="arms:covered" xmlns="http://www.w3.org/2000/svg" viewBox="0 0 512 512" data-copyright="© 2026 Sensory App House"><!--SAH-COPYRIGHT © 2026 Sensory App House. All rights reserved.--><metadata id="sah-copyright"><rdf:RDF xmlns:rdf="http://www.w3.org/1999/02/22-rdf-syntax-ns#" xmlns:dc="http://purl.org/dc/elements/1.1/" xmlns:cc="http://creativecommons.org/ns#"><cc:Work rdf:about=""><dc:rights><cc:Agent><dc:title>© 2026 Sensory App House. All rights reserved.</dc:title></cc:Agent></dc:rights><dc:creator><cc:Agent><dc:title>Sensory App House (PiCom)</dc:title></cc:Agent></dc:creator><dc:date>2026</dc:date></cc:Work></rdf:RDF></metadata><metadata id="sah">{"v":1,"fig":[["h1","ma"]]}</metadata><g data-fit="1" transform="translate(256 256) scale(1.0989) translate(-222.00 -269.00)">
<g transform="translate(29.8,65.4) scale(0.780)"><!-- gather: arrows converging inward to a central point (collect / come together) -->
  <!-- central dot -->
  <circle cx="135" cy="256" r="34" fill="#f5b041" stroke="#1a1a1a" stroke-width="5"/>
  <!-- arrow from top -->
  <path d="M135 70 L135 170" stroke="#1a1a1a" stroke-width="12" fill="none" stroke-linecap="round"/>
  <path d="M135 188 L112 152 L158 152 Z" fill="#3b82d6" stroke="#1a1a1a" stroke-width="5" stroke-linejoin="round"/>
  <!-- arrow from bottom -->
  <path d="M135 442 L135 342" stroke="#1a1a1a" stroke-width="12" fill="none" stroke-linecap="round"/>
  <path d="M135 324 L112 360 L158 360 Z" fill="#27ae60" stroke="#1a1a1a" stroke-width="5" stroke-linejoin="round"/>
  <!-- arrow from left -->
  <path d="M-10 256 L70 256" stroke="#1a1a1a" stroke-width="12" fill="none" stroke-linecap="round"/>
  <path d="M88 256 L52 233 L52 279 Z" fill="#e74c3c" stroke="#1a1a1a" stroke-width="5" stroke-linejoin="round"/>
  <!-- arrow from right -->
  <path d="M280 256 L200 256" stroke="#1a1a1a" stroke-width="12" fill="none" stroke-linecap="round"/>
  <path d="M182 256 L218 233 L218 279 Z" fill="#7a4ec9" stroke="#1a1a1a" stroke-width="5" stroke-linejoin="round"/></g>
<polygon points="336,197 400,197 398,305 338,305" fill="#caa46a" stroke="#1a1a1a" stroke-width="5" stroke-linejoin="round"/>
<line x1="350" y1="303" x2="344" y2="455" stroke="#39425c" stroke-width="16" stroke-linecap="round"/>
<line x1="386" y1="303" x2="392" y2="455" stroke="#39425c" stroke-width="16" stroke-linecap="round"/>
<ellipse cx="344" cy="457" rx="13" ry="7" fill="#33373d"/>
<ellipse cx="392" cy="457" rx="13" ry="7" fill="#33373d"/>
<line x1="338" y1="199" x2="318" y2="305" stroke="#1a1a1a" stroke-width="13.0" stroke-linecap="round"/>
<line x1="398" y1="199" x2="418" y2="305" stroke="#1a1a1a" stroke-width="13.0" stroke-linecap="round"/>
<line x1="368" y1="197" x2="368" y2="166" stroke="#1a1a1a" stroke-width="13.0" stroke-linecap="round"/>
<path d="M 338.0 197 L 398.0 197 L 396.0 315 L 340.0 315 Z" fill="#caa46a" stroke="#1a1a1a" stroke-width="4" stroke-linejoin="round"/>
<path d="M 346.0 301 L 390.0 301 L 394.0 425 Q 368.0 439 342.0 425 Z" fill="#6b4a2b" stroke="#1a1a1a" stroke-width="4" stroke-linejoin="round"/>
<line x1="356" y1="315" x2="356" y2="415" stroke="#4a3018" stroke-width="2" stroke-linecap="round"/>
<line x1="380" y1="315" x2="380" y2="415" stroke="#4a3018" stroke-width="2" stroke-linecap="round"/>
<ellipse cx="368" cy="209" rx="34" ry="13" fill="#ffffff" stroke="#1a1a1a" stroke-width="3"/>
<ellipse cx="368" cy="209" rx="25" ry="9" fill="#e23b3b" stroke="#1a1a1a" stroke-width="2"/>
<ellipse cx="368" cy="209" rx="14" ry="6" fill="#1a1a1a" stroke="#1a1a1a" stroke-width="2"/>
<line x1="338" y1="199" x2="318" y2="305" stroke="#ffffff" stroke-width="20" stroke-linecap="round"/>
<line x1="338" y1="199" x2="318" y2="305" stroke="#1a1a1a" stroke-width="13.0" stroke-linecap="round"/>
<line x1="398" y1="199" x2="418" y2="305" stroke="#ffffff" stroke-width="20" stroke-linecap="round"/>
<line x1="398" y1="199" x2="418" y2="305" stroke="#1a1a1a" stroke-width="13.0" stroke-linecap="round"/>
<circle id="h1" data-fig="ma" cx="368" cy="130" r="40" fill="#5e3618" stroke="#1a1a1a" stroke-width="6" class="skin"/>
<path d="M 328 130 Q 328 80 368 80 Q 408 80 408 130 Q 368 103 328 130 Z" fill="#241c14" stroke="#1a1a1a" stroke-width="3" stroke-linejoin="round"/>
</g></svg>
