<svg data-cover="arms:covered" xmlns="http://www.w3.org/2000/svg" viewBox="0 0 512 512" data-copyright="© 2026 Sensory App House"><!--SAH-COPYRIGHT © 2026 Sensory App House. All rights reserved.--><metadata id="sah-copyright"><rdf:RDF xmlns:rdf="http://www.w3.org/1999/02/22-rdf-syntax-ns#" xmlns:dc="http://purl.org/dc/elements/1.1/" xmlns:cc="http://creativecommons.org/ns#"><cc:Work rdf:about=""><dc:rights><cc:Agent><dc:title>© 2026 Sensory App House. All rights reserved.</dc:title></cc:Agent></dc:rights><dc:creator><cc:Agent><dc:title>Sensory App House (PiCom)</dc:title></cc:Agent></dc:creator><dc:date>2026</dc:date></cc:Work></rdf:RDF></metadata><metadata id="sah">{"v":1,"fig":[["h1","ma"],["h2","fa"]]}</metadata><g data-fit="1" transform="translate(256 256) scale(1.1553) translate(-257.00 -269.00)">
<line x1="113" y1="303" x2="104" y2="455" stroke="#39425c" stroke-width="16.0" stroke-linecap="round"/>
<line x1="143" y1="303" x2="152" y2="455" stroke="#39425c" stroke-width="16.0" stroke-linecap="round"/>
<ellipse cx="104" cy="457" rx="13" ry="7" fill="#33373d"/>
<ellipse cx="152" cy="457" rx="13" ry="7" fill="#33373d"/>
<polygon points="96,197 160,197 158,305 98,305" fill="#caa46a" stroke="#1a1a1a" stroke-width="5" stroke-linejoin="round"/>
<line x1="98" y1="199" x2="78" y2="305" stroke="#1a1a1a" stroke-width="13.0" stroke-linecap="round"/>
<line x1="158" y1="199" x2="178" y2="305" stroke="#1a1a1a" stroke-width="13.0" stroke-linecap="round"/>
<line x1="128" y1="197" x2="128" y2="166" stroke="#1a1a1a" stroke-width="13.0" stroke-linecap="round"/>
<path d="M 98.0 197 L 158.0 197 L 156.0 315 L 100.0 315 Z" fill="#caa46a" stroke="#1a1a1a" stroke-width="4" stroke-linejoin="round"/>
<path d="M 106.0 301 L 150.0 301 L 154.0 425 Q 128.0 439 102.0 425 Z" fill="#6b4a2b" stroke="#1a1a1a" stroke-width="4" stroke-linejoin="round"/>
<line x1="116" y1="315" x2="116" y2="415" stroke="#4a3018" stroke-width="2" stroke-linecap="round"/>
<line x1="140" y1="315" x2="140" y2="415" stroke="#4a3018" stroke-width="2" stroke-linecap="round"/>
<ellipse cx="128" cy="209" rx="34" ry="13" fill="#ffffff" stroke="#1a1a1a" stroke-width="3"/>
<ellipse cx="128" cy="209" rx="25" ry="9" fill="#e23b3b" stroke="#1a1a1a" stroke-width="2"/>
<ellipse cx="128" cy="209" rx="14" ry="6" fill="#1a1a1a" stroke="#1a1a1a" stroke-width="2"/>
<line x1="98" y1="199" x2="78" y2="305" stroke="#ffffff" stroke-width="20" stroke-linecap="round"/>
<line x1="98" y1="199" x2="78" y2="305" stroke="#1a1a1a" stroke-width="13.0" stroke-linecap="round"/>
<line x1="158" y1="199" x2="178" y2="305" stroke="#ffffff" stroke-width="20" stroke-linecap="round"/>
<line x1="158" y1="199" x2="178" y2="305" stroke="#1a1a1a" stroke-width="13.0" stroke-linecap="round"/>
<circle id="h1" data-fig="ma" class="skin" cx="128" cy="130" r="40" fill="#5e3618" stroke="#1a1a1a" stroke-width="6"/>
<path d="M 88.0 130.0 Q 88.0 80.0 128 80.0 Q 168.0 80.0 168.0 130.0 Q 128 103.0 88.0 130.0 Z" fill="#241c14" stroke="#1a1a1a" stroke-width="3" stroke-linejoin="round"/>
<path d="M 354.0 197.0 L 414.0 197.0 L 414.0 287.0 L 440.0 389.0 L 328.0 389.0 L 354.0 287.0 Z" fill="#7a5fb0" stroke="#1a1a1a" stroke-width="5" stroke-linejoin="round"/>
<line x1="366" y1="389" x2="360" y2="455" stroke="#1a1a1a" stroke-width="13.0" stroke-linecap="round"/>
<line x1="402" y1="389" x2="408" y2="455" stroke="#1a1a1a" stroke-width="13.0" stroke-linecap="round"/>
<ellipse cx="360" cy="457" rx="13" ry="7" fill="#33373d"/>
<ellipse cx="408" cy="457" rx="13" ry="7" fill="#33373d"/>
<line x1="354" y1="199" x2="334" y2="305" stroke="#1a1a1a" stroke-width="13.0" stroke-linecap="round"/>
<line x1="414" y1="199" x2="434" y2="305" stroke="#1a1a1a" stroke-width="13.0" stroke-linecap="round"/>
<line x1="384" y1="197" x2="384" y2="166" stroke="#1a1a1a" stroke-width="13.0" stroke-linecap="round"/>
<path d="M 337.0 184.0 L 337.0 128.0 Q 337.0 76.0 384 76.0 Q 431.0 76.0 431.0 128.0 L 431.0 184.0 L 418.0 184.0 L 418.0 130.0 Q 418.0 96.0 384 96.0 Q 350.0 96.0 350.0 130.0 L 350.0 184.0 Z" fill="#5a3a1f" stroke="#1a1a1a" stroke-width="3" stroke-linejoin="round"/>
<path d="M 352.0 197 L 416.0 197 L 414.0 299 L 354.0 299 Z" fill="#1a1a1a" stroke="#1a1a1a" stroke-width="4" stroke-linejoin="round"/>
<line x1="354" y1="215" x2="414" y2="215" stroke="#e23b3b" stroke-width="5" stroke-linecap="round"/>
<line x1="354" y1="239" x2="414" y2="239" stroke="#e23b3b" stroke-width="5" stroke-linecap="round"/>
<line x1="354" y1="263" x2="414" y2="263" stroke="#e23b3b" stroke-width="5" stroke-linecap="round"/>
<line x1="354" y1="287" x2="414" y2="287" stroke="#e23b3b" stroke-width="5" stroke-linecap="round"/>
<line x1="354" y1="227" x2="414" y2="227" stroke="#ffd24a" stroke-width="5" stroke-linecap="round"/>
<line x1="354" y1="251" x2="414" y2="251" stroke="#ffd24a" stroke-width="5" stroke-linecap="round"/>
<line x1="354" y1="275" x2="414" y2="275" stroke="#ffd24a" stroke-width="5" stroke-linecap="round"/>
<path d="M 354.0 299 L 414.0 299 L 428.0 443 L 340.0 443 Z" fill="#5a3a22" stroke="#1a1a1a" stroke-width="4" stroke-linejoin="round"/>
<line x1="354" y1="335" x2="414" y2="335" stroke="#3a2614" stroke-width="2" stroke-linecap="round"/>
<ellipse cx="384" cy="203" rx="30" ry="11" fill="#ffffff" stroke="#1a1a1a" stroke-width="3"/>
<ellipse cx="384" cy="203" rx="22" ry="8" fill="#e23b3b" stroke="#1a1a1a" stroke-width="2"/>
<ellipse cx="384" cy="203" rx="12" ry="5" fill="#3b82d6" stroke="#1a1a1a" stroke-width="2"/>
<line x1="354" y1="199" x2="334" y2="305" stroke="#ffffff" stroke-width="20" stroke-linecap="round"/>
<line x1="354" y1="199" x2="334" y2="305" stroke="#1a1a1a" stroke-width="13.0" stroke-linecap="round"/>
<line x1="414" y1="199" x2="434" y2="305" stroke="#ffffff" stroke-width="20" stroke-linecap="round"/>
<line x1="414" y1="199" x2="434" y2="305" stroke="#1a1a1a" stroke-width="13.0" stroke-linecap="round"/>
<path d="M 337.0 184.0 L 337.0 128.0 Q 337.0 76.0 384.0 76.0 Q 431.0 76.0 431.0 128.0 L 431.0 184.0 L 418.0 184.0 L 418.0 130.0 Q 418.0 96.0 384.0 96.0 Q 350.0 96.0 350.0 130.0 L 350.0 184.0 Z" fill="#241c14" stroke="#1a1a1a" stroke-width="3"/>
<circle id="h2" data-fig="fa" class="skin" cx="384" cy="130" r="40" fill="#5e3618" stroke="#1a1a1a" stroke-width="6"/>
<path d="M 346.0 96.0 Q 384.0 82.0 422.0 96.0 Q 384.0 92.0 346.0 96.0 Z" fill="#241c14" stroke="#1a1a1a" stroke-width="3"/>
<path d="M 338.0 96 L 362.0 60 L 406.0 60 L 430.0 96 Z" fill="#9e2b25" stroke="#1a1a1a" stroke-width="4" stroke-linejoin="round"/>
<ellipse cx="384" cy="96" rx="46" ry="10" fill="#7a1c14" stroke="#1a1a1a" stroke-width="3"/>
<ellipse cx="384" cy="60" rx="22" ry="6" fill="#9e2b25" stroke="#1a1a1a" stroke-width="3"/>
<rect x="123" y="100" width="86" height="56" rx="14" fill="#e8f6ec" stroke="#3fae5a" stroke-width="5"/>
<polygon points="199.0,154.0 219.0,176.0 179.0,154.0" fill="#e8f6ec" stroke="#3fae5a" stroke-width="5" stroke-linejoin="round"/>
<line x1="146" y1="128" x2="186" y2="128" stroke="#1a1a1a" stroke-width="17.0" stroke-linecap="round"/><line x1="166" y1="108" x2="166" y2="148" stroke="#1a1a1a" stroke-width="17.0" stroke-linecap="round"/><line x1="146" y1="128" x2="186" y2="128" stroke="#3fae5a" stroke-width="11.5" stroke-linecap="round"/>
<line x1="166" y1="108" x2="166" y2="148" stroke="#3fae5a" stroke-width="11.5" stroke-linecap="round"/>
<rect x="303" y="100" width="86" height="56" rx="14" fill="#fdeceb" stroke="#e0473c" stroke-width="5"/>
<polygon points="313.0,154.0 293.0,176.0 333.0,154.0" fill="#fdeceb" stroke="#e0473c" stroke-width="5" stroke-linejoin="round"/>
<line x1="326" y1="128" x2="366" y2="128" stroke="#e0473c" stroke-width="10" stroke-linecap="round"/>
<polygon points="262,176 240,238 258,238 246,300 286,224 266,224 282,176" fill="#f0b400" stroke="#caa015" stroke-width="4" stroke-linejoin="round"/>
<line x1="206" y1="332" x2="244" y2="332" stroke="#1a1a1a" stroke-width="9" stroke-linecap="round"/>
<line x1="244" y1="332" x2="228" y2="341" stroke="#1a1a1a" stroke-width="9" stroke-linecap="round"/>
<line x1="244" y1="332" x2="228" y2="323" stroke="#1a1a1a" stroke-width="9" stroke-linecap="round"/>
<line x1="306" y1="332" x2="268" y2="332" stroke="#1a1a1a" stroke-width="9" stroke-linecap="round"/>
<line x1="268" y1="332" x2="284" y2="323" stroke="#1a1a1a" stroke-width="9" stroke-linecap="round"/>
<line x1="268" y1="332" x2="284" y2="341" stroke="#1a1a1a" stroke-width="9" stroke-linecap="round"/>
</g></svg>
