<svg data-cover="arms:covered" xmlns="http://www.w3.org/2000/svg" viewBox="50.50 52.21 438.30 438.30"><metadata id="sah">{"v":1,"fig":[["h1","fa"]]}</metadata>
<line x1="221" y1="303" x2="212" y2="455" stroke="#39425c" stroke-width="16.0" stroke-linecap="round"/>
<line x1="251" y1="303" x2="260" y2="455" stroke="#39425c" stroke-width="16.0" stroke-linecap="round"/>
<ellipse cx="212" cy="457" rx="13" ry="7" fill="#33373d"/>
<ellipse cx="260" cy="457" rx="13" ry="7" fill="#33373d"/>
<polygon points="204,197 268,197 266,305 206,305" fill="#3fae5a" stroke="#1a1a1a" stroke-width="5" stroke-linejoin="round"/>
<line x1="206" y1="199" x2="202" y2="123" stroke="#1a1a1a" stroke-width="13.0" stroke-linecap="round"/>
<line x1="266" y1="199" x2="270" y2="123" stroke="#1a1a1a" stroke-width="13.0" stroke-linecap="round"/>
<line x1="236" y1="197" x2="236" y2="166" stroke="#1a1a1a" stroke-width="13.0" stroke-linecap="round"/>
<path d="M 189.0 184.0 L 189.0 128.0 Q 189.0 76.0 236.0 76.0 Q 283.0 76.0 283.0 128.0 L 283.0 184.0 L 270.0 184.0 L 270.0 130.0 Q 270.0 96.0 236.0 96.0 Q 202.0 96.0 202.0 130.0 L 202.0 184.0 Z" fill="#5a3a1f" stroke="#1a1a1a" stroke-width="3"/>
<path d="M 204.0 197 L 268.0 197 L 266.0 299 L 206.0 299 Z" fill="#1a1a1a" stroke="#1a1a1a" stroke-width="4" stroke-linejoin="round"/>
<line x1="206" y1="215" x2="266" y2="215" stroke="#e23b3b" stroke-width="5" stroke-linecap="round"/>
<line x1="206" y1="239" x2="266" y2="239" stroke="#e23b3b" stroke-width="5" stroke-linecap="round"/>
<line x1="206" y1="263" x2="266" y2="263" stroke="#e23b3b" stroke-width="5" stroke-linecap="round"/>
<line x1="206" y1="287" x2="266" y2="287" stroke="#e23b3b" stroke-width="5" stroke-linecap="round"/>
<line x1="206" y1="227" x2="266" y2="227" stroke="#ffd24a" stroke-width="5" stroke-linecap="round"/>
<line x1="206" y1="251" x2="266" y2="251" stroke="#ffd24a" stroke-width="5" stroke-linecap="round"/>
<line x1="206" y1="275" x2="266" y2="275" stroke="#ffd24a" stroke-width="5" stroke-linecap="round"/>
<path d="M 206.0 299 L 266.0 299 L 280.0 443 L 192.0 443 Z" fill="#5a3a22" stroke="#1a1a1a" stroke-width="4" stroke-linejoin="round"/>
<line x1="206" y1="335" x2="266" y2="335" stroke="#3a2614" stroke-width="2" stroke-linecap="round"/>
<ellipse cx="236" cy="203" rx="30" ry="11" fill="#ffffff" stroke="#1a1a1a" stroke-width="3"/>
<ellipse cx="236" cy="203" rx="22" ry="8" fill="#e23b3b" stroke="#1a1a1a" stroke-width="2"/>
<ellipse cx="236" cy="203" rx="12" ry="5" fill="#3b82d6" stroke="#1a1a1a" stroke-width="2"/>
<path d="M 189.0 184.0 L 189.0 128.0 Q 189.0 76.0 236.0 76.0 Q 283.0 76.0 283.0 128.0 L 283.0 184.0 L 270.0 184.0 L 270.0 130.0 Q 270.0 96.0 236.0 96.0 Q 202.0 96.0 202.0 130.0 L 202.0 184.0 Z" fill="#241c14" stroke="#1a1a1a" stroke-width="3"/>
<circle id="h1" data-fig="fa" class="skin" cx="236" cy="130" r="40" fill="#5e3618" stroke="#1a1a1a" stroke-width="6"/>
<path d="M 198.0 96.0 Q 236.0 82.0 274.0 96.0 Q 236.0 92.0 198.0 96.0 Z" fill="#241c14" stroke="#1a1a1a" stroke-width="3"/>
<path d="M 190.0 96 L 214.0 60 L 258.0 60 L 282.0 96 Z" fill="#9e2b25" stroke="#1a1a1a" stroke-width="4" stroke-linejoin="round"/>
<ellipse cx="236" cy="96" rx="46" ry="10" fill="#7a1c14" stroke="#1a1a1a" stroke-width="3"/>
<ellipse cx="236" cy="60" rx="22" ry="6" fill="#9e2b25" stroke="#1a1a1a" stroke-width="3"/>
<circle cx="223" cy="127" r="4" fill="#1a1a1a" stroke="#1a1a1a" stroke-width="0"/>
<circle cx="249" cy="127" r="4" fill="#1a1a1a" stroke="#1a1a1a" stroke-width="0"/>
<path d="M 222.0 144.0 Q 236 160.0 250.0 144.0" fill="none" stroke="#1a1a1a" stroke-width="4" stroke-linejoin="round"/>
<path d="M 202 191 Q 236 175 270 191 Q 236 205 202 191 Z" fill="#2f7a44" stroke="#1a1a1a" stroke-width="4" stroke-linejoin="round"/>
<circle cx="202" cy="123" r="12" fill="#5e3618" stroke="#1a1a1a" stroke-width="4"/>
<circle cx="270" cy="123" r="12" fill="#5e3618" stroke="#1a1a1a" stroke-width="4"/>
<line x1="166" y1="167" x2="166" y2="221" stroke="#2b6fb0" stroke-width="5" stroke-linecap="round"/>
<polygon points="166,231 157,217 175,217" fill="#2b6fb0" stroke="#1a1a1a" stroke-width="2" stroke-linejoin="round"/>
<line x1="306" y1="167" x2="306" y2="221" stroke="#2b6fb0" stroke-width="5" stroke-linecap="round"/>
<polygon points="306,231 297,217 315,217" fill="#2b6fb0" stroke="#1a1a1a" stroke-width="2" stroke-linejoin="round"/>
<ellipse cx="212" cy="452" rx="16" ry="8" fill="#33373d" stroke="#1a1a1a" stroke-width="3"/>
<ellipse cx="260" cy="452" rx="16" ry="8" fill="#33373d" stroke="#1a1a1a" stroke-width="3"/>
<line x1="347" y1="150" x2="365" y2="172" stroke="#1a1a1a" stroke-width="16.0" stroke-linecap="round"/><line x1="365" y1="172" x2="403" y2="125" stroke="#1a1a1a" stroke-width="16.0" stroke-linecap="round"/><line x1="347" y1="150" x2="365" y2="172" stroke="#3fae5a" stroke-width="10.5" stroke-linecap="round"/>
<line x1="365" y1="172" x2="403" y2="125" stroke="#3fae5a" stroke-width="10.5" stroke-linecap="round"/>
<line x1="323" y1="120" x2="337" y2="120" stroke="#f0b400" stroke-width="3" stroke-linecap="round"/>
<line x1="330" y1="113" x2="330" y2="127" stroke="#f0b400" stroke-width="3" stroke-linecap="round"/>
<line x1="407" y1="120" x2="421" y2="120" stroke="#f0b400" stroke-width="3" stroke-linecap="round"/>
<line x1="414" y1="113" x2="414" y2="127" stroke="#f0b400" stroke-width="3" stroke-linecap="round"/>
<line x1="120" y1="455" x2="360" y2="455" stroke="#9aa7b5" stroke-width="5" stroke-linecap="round"/>
</svg>
