<svg data-cover="arms:covered" xmlns="http://www.w3.org/2000/svg" viewBox="33.94 46.74 444.12 444.12"><metadata id="sah">{"v":1,"fig":[["h1","ma"],["h2","fa"]]}</metadata>
<line x1="96" y1="455" x2="416" y2="455" stroke="#9aa7b5" stroke-width="5" stroke-linecap="round"/>
<line x1="165" y1="303" x2="156" y2="455" stroke="#39425c" stroke-width="16.0" stroke-linecap="round"/>
<line x1="195" y1="303" x2="204" y2="455" stroke="#39425c" stroke-width="16.0" stroke-linecap="round"/>
<ellipse cx="156" cy="457" rx="13" ry="7" fill="#33373d"/>
<ellipse cx="204" cy="457" rx="13" ry="7" fill="#33373d"/>
<polygon points="148,197 212,197 210,305 150,305" fill="#caa46a" stroke="#1a1a1a" stroke-width="5" stroke-linejoin="round"/>
<line x1="150" y1="199" x2="130" y2="305" stroke="#1a1a1a" stroke-width="13.0" stroke-linecap="round"/>
<line x1="210" y1="199" x2="230" y2="305" stroke="#1a1a1a" stroke-width="13.0" stroke-linecap="round"/>
<line x1="180" y1="197" x2="180" y2="166" stroke="#1a1a1a" stroke-width="13.0" stroke-linecap="round"/>
<path d="M 150.0 197 L 210.0 197 L 208.0 315 L 152.0 315 Z" fill="#caa46a" stroke="#1a1a1a" stroke-width="4" stroke-linejoin="round"/>
<path d="M 158.0 301 L 202.0 301 L 206.0 425 Q 180.0 439 154.0 425 Z" fill="#6b4a2b" stroke="#1a1a1a" stroke-width="4" stroke-linejoin="round"/>
<line x1="168" y1="315" x2="168" y2="415" stroke="#4a3018" stroke-width="2" stroke-linecap="round"/>
<line x1="192" y1="315" x2="192" y2="415" stroke="#4a3018" stroke-width="2" stroke-linecap="round"/>
<ellipse cx="180" cy="209" rx="34" ry="13" fill="#ffffff" stroke="#1a1a1a" stroke-width="3"/>
<ellipse cx="180" cy="209" rx="25" ry="9" fill="#e23b3b" stroke="#1a1a1a" stroke-width="2"/>
<ellipse cx="180" cy="209" rx="14" ry="6" fill="#1a1a1a" stroke="#1a1a1a" stroke-width="2"/>
<line x1="150" y1="199" x2="130" y2="305" stroke="#ffffff" stroke-width="20" stroke-linecap="round"/>
<line x1="150" y1="199" x2="130" y2="305" stroke="#1a1a1a" stroke-width="13.0" stroke-linecap="round"/>
<line x1="210" y1="199" x2="230" y2="305" stroke="#ffffff" stroke-width="20" stroke-linecap="round"/>
<line x1="210" y1="199" x2="230" y2="305" stroke="#1a1a1a" stroke-width="13.0" stroke-linecap="round"/>
<circle id="h1" data-fig="ma" class="skin" cx="180" cy="130" r="40" fill="#5e3618" stroke="#1a1a1a" stroke-width="6"/>
<path d="M 140.0 130.0 Q 140.0 80.0 180 80.0 Q 220.0 80.0 220.0 130.0 Q 180 103.0 140.0 130.0 Z" fill="#241c14" stroke="#1a1a1a" stroke-width="3" stroke-linejoin="round"/>
<path d="M 302.0 197.0 L 362.0 197.0 L 362.0 287.0 L 388.0 389.0 L 276.0 389.0 L 302.0 287.0 Z" fill="#d6529e" stroke="#1a1a1a" stroke-width="5" stroke-linejoin="round"/>
<line x1="314" y1="389" x2="308" y2="455" stroke="#1a1a1a" stroke-width="13.0" stroke-linecap="round"/>
<line x1="350" y1="389" x2="356" y2="455" stroke="#1a1a1a" stroke-width="13.0" stroke-linecap="round"/>
<ellipse cx="308" cy="457" rx="13" ry="7" fill="#33373d"/>
<ellipse cx="356" cy="457" rx="13" ry="7" fill="#33373d"/>
<line x1="302" y1="199" x2="282" y2="305" stroke="#1a1a1a" stroke-width="13.0" stroke-linecap="round"/>
<line x1="362" y1="199" x2="382" y2="305" stroke="#1a1a1a" stroke-width="13.0" stroke-linecap="round"/>
<line x1="332" y1="197" x2="332" y2="166" stroke="#1a1a1a" stroke-width="13.0" stroke-linecap="round"/>
<path d="M 285.0 184.0 L 285.0 128.0 Q 285.0 76.0 332 76.0 Q 379.0 76.0 379.0 128.0 L 379.0 184.0 L 366.0 184.0 L 366.0 130.0 Q 366.0 96.0 332 96.0 Q 298.0 96.0 298.0 130.0 L 298.0 184.0 Z" fill="#5a3a1f" stroke="#1a1a1a" stroke-width="3" stroke-linejoin="round"/>
<path d="M 300.0 197 L 364.0 197 L 362.0 299 L 302.0 299 Z" fill="#1a1a1a" stroke="#1a1a1a" stroke-width="4" stroke-linejoin="round"/>
<line x1="302" y1="215" x2="362" y2="215" stroke="#e23b3b" stroke-width="5" stroke-linecap="round"/>
<line x1="302" y1="239" x2="362" y2="239" stroke="#e23b3b" stroke-width="5" stroke-linecap="round"/>
<line x1="302" y1="263" x2="362" y2="263" stroke="#e23b3b" stroke-width="5" stroke-linecap="round"/>
<line x1="302" y1="287" x2="362" y2="287" stroke="#e23b3b" stroke-width="5" stroke-linecap="round"/>
<line x1="302" y1="227" x2="362" y2="227" stroke="#ffd24a" stroke-width="5" stroke-linecap="round"/>
<line x1="302" y1="251" x2="362" y2="251" stroke="#ffd24a" stroke-width="5" stroke-linecap="round"/>
<line x1="302" y1="275" x2="362" y2="275" stroke="#ffd24a" stroke-width="5" stroke-linecap="round"/>
<path d="M 302.0 299 L 362.0 299 L 376.0 443 L 288.0 443 Z" fill="#5a3a22" stroke="#1a1a1a" stroke-width="4" stroke-linejoin="round"/>
<line x1="302" y1="335" x2="362" y2="335" stroke="#3a2614" stroke-width="2" stroke-linecap="round"/>
<ellipse cx="332" cy="203" rx="30" ry="11" fill="#ffffff" stroke="#1a1a1a" stroke-width="3"/>
<ellipse cx="332" cy="203" rx="22" ry="8" fill="#e23b3b" stroke="#1a1a1a" stroke-width="2"/>
<ellipse cx="332" cy="203" rx="12" ry="5" fill="#3b82d6" stroke="#1a1a1a" stroke-width="2"/>
<line x1="302" y1="199" x2="282" y2="305" stroke="#ffffff" stroke-width="20" stroke-linecap="round"/>
<line x1="302" y1="199" x2="282" y2="305" stroke="#1a1a1a" stroke-width="13.0" stroke-linecap="round"/>
<line x1="362" y1="199" x2="382" y2="305" stroke="#ffffff" stroke-width="20" stroke-linecap="round"/>
<line x1="362" y1="199" x2="382" y2="305" stroke="#1a1a1a" stroke-width="13.0" stroke-linecap="round"/>
<path d="M 285.0 184.0 L 285.0 128.0 Q 285.0 76.0 332.0 76.0 Q 379.0 76.0 379.0 128.0 L 379.0 184.0 L 366.0 184.0 L 366.0 130.0 Q 366.0 96.0 332.0 96.0 Q 298.0 96.0 298.0 130.0 L 298.0 184.0 Z" fill="#241c14" stroke="#1a1a1a" stroke-width="3"/>
<circle id="h2" data-fig="fa" class="skin" cx="332" cy="130" r="40" fill="#5e3618" stroke="#1a1a1a" stroke-width="6"/>
<path d="M 294.0 96.0 Q 332.0 82.0 370.0 96.0 Q 332.0 92.0 294.0 96.0 Z" fill="#241c14" stroke="#1a1a1a" stroke-width="3"/>
<path d="M 286.0 96 L 310.0 60 L 354.0 60 L 378.0 96 Z" fill="#9e2b25" stroke="#1a1a1a" stroke-width="4" stroke-linejoin="round"/>
<ellipse cx="332" cy="96" rx="46" ry="10" fill="#7a1c14" stroke="#1a1a1a" stroke-width="3"/>
<ellipse cx="332" cy="60" rx="22" ry="6" fill="#9e2b25" stroke="#1a1a1a" stroke-width="3"/>
<path d="M 256 248 C 230 226 230 252 256 266 C 282 252 282 226 256 248 Z" fill="#e23b3b" stroke="#1a1a1a" stroke-width="2"/>
<circle cx="418" cy="95" r="13" fill="none" stroke="#d6529e" stroke-width="5"/>
<line x1="418" y1="108" x2="418" y2="132" stroke="#d6529e" stroke-width="5" stroke-linecap="round"/>
<line x1="406" y1="120" x2="430" y2="120" stroke="#d6529e" stroke-width="5" stroke-linecap="round"/>
</svg>
