<svg data-cover="arms:covered" xmlns="http://www.w3.org/2000/svg" viewBox="90.61 52.21 438.30 438.30"><metadata id="sah">{"v":1,"fig":[["h1","ma"]]}</metadata>
<line x1="181" y1="303" x2="172" y2="455" stroke="#39425c" stroke-width="16.0" stroke-linecap="round"/>
<line x1="211" y1="303" x2="220" y2="455" stroke="#39425c" stroke-width="16.0" stroke-linecap="round"/>
<ellipse cx="172" cy="457" rx="13" ry="7" fill="#33373d"/>
<ellipse cx="220" cy="457" rx="13" ry="7" fill="#33373d"/>
<polygon points="164,197 228,197 226,305 166,305" fill="#caa46a" stroke="#1a1a1a" stroke-width="5" stroke-linejoin="round"/>
<line x1="166" y1="199" x2="150" y2="305" stroke="#1a1a1a" stroke-width="13.0" stroke-linecap="round"/>
<line x1="226" y1="199" x2="274" y2="221" stroke="#1a1a1a" stroke-width="13.0" stroke-linecap="round"/>
<line x1="196" y1="197" x2="196" y2="166" stroke="#1a1a1a" stroke-width="13.0" stroke-linecap="round"/>
<path d="M 166.0 197 L 226.0 197 L 224.0 315 L 168.0 315 Z" fill="#caa46a" stroke="#1a1a1a" stroke-width="4" stroke-linejoin="round"/>
<path d="M 174.0 301 L 218.0 301 L 222.0 425 Q 196.0 439 170.0 425 Z" fill="#6b4a2b" stroke="#1a1a1a" stroke-width="4" stroke-linejoin="round"/>
<line x1="184" y1="315" x2="184" y2="415" stroke="#4a3018" stroke-width="2" stroke-linecap="round"/>
<line x1="208" y1="315" x2="208" y2="415" stroke="#4a3018" stroke-width="2" stroke-linecap="round"/>
<ellipse cx="196" cy="209" rx="34" ry="13" fill="#ffffff" stroke="#1a1a1a" stroke-width="3"/>
<ellipse cx="196" cy="209" rx="25" ry="9" fill="#e23b3b" stroke="#1a1a1a" stroke-width="2"/>
<ellipse cx="196" cy="209" rx="14" ry="6" fill="#1a1a1a" stroke="#1a1a1a" stroke-width="2"/>
<line x1="166" y1="199" x2="150" y2="305" stroke="#ffffff" stroke-width="20" stroke-linecap="round"/>
<line x1="166" y1="199" x2="150" y2="305" stroke="#1a1a1a" stroke-width="13.0" stroke-linecap="round"/>
<line x1="226" y1="199" x2="274" y2="221" stroke="#ffffff" stroke-width="20" stroke-linecap="round"/>
<line x1="226" y1="199" x2="274" y2="221" stroke="#1a1a1a" stroke-width="13.0" stroke-linecap="round"/>
<circle id="h1" data-fig="ma" class="skin" cx="196" cy="130" r="40" fill="#5e3618" stroke="#1a1a1a" stroke-width="6"/>
<path d="M 156.0 130.0 Q 156.0 80.0 196 80.0 Q 236.0 80.0 236.0 130.0 Q 196 103.0 156.0 130.0 Z" fill="#241c14" stroke="#1a1a1a" stroke-width="3" stroke-linejoin="round"/>
<ellipse cx="282" cy="225" rx="21" ry="24" fill="#5e3618" stroke="#1a1a1a" stroke-width="5"/>
<line x1="269" y1="215" x2="269" y2="187" stroke="#f5d6b0" stroke-width="7" stroke-linecap="round"/>
<circle cx="269" cy="187" r="4" fill="#5e3618" stroke="#1a1a1a" stroke-width="4"/>
<line x1="278" y1="215" x2="278" y2="187" stroke="#f5d6b0" stroke-width="7" stroke-linecap="round"/>
<circle cx="278" cy="187" r="4" fill="#5e3618" stroke="#1a1a1a" stroke-width="4"/>
<line x1="287" y1="215" x2="287" y2="187" stroke="#f5d6b0" stroke-width="7" stroke-linecap="round"/>
<circle cx="287" cy="187" r="4" fill="#5e3618" stroke="#1a1a1a" stroke-width="4"/>
<line x1="296" y1="215" x2="296" y2="187" stroke="#f5d6b0" stroke-width="7" stroke-linecap="round"/>
<circle cx="296" cy="187" r="4" fill="#5e3618" stroke="#1a1a1a" stroke-width="4"/>
<line x1="263" y1="223" x2="255" y2="238" stroke="#f5d6b0" stroke-width="7" stroke-linecap="round"/>
<line x1="470" y1="300" x2="344" y2="300" stroke="#c79b78" stroke-width="9" stroke-linecap="round"/>
<ellipse cx="334" cy="300" rx="14" ry="11" fill="#5e3618" stroke="#1a1a1a" stroke-width="5"/>
<line x1="394" y1="144" x2="446" y2="196" stroke="#e0473c" stroke-width="14" stroke-linecap="round"/>
<line x1="446" y1="144" x2="394" y2="196" stroke="#e0473c" stroke-width="14" stroke-linecap="round"/>
</svg>
