<svg data-cover="arms:covered" xmlns="http://www.w3.org/2000/svg" viewBox="9.70 22.50 492.61 492.61"><metadata id="sah">{"v":1,"fig":[["h1","ma"],["h2","fa"]]}</metadata>
<line x1="135" y1="303" x2="126" y2="455" stroke="#39425c" stroke-width="16.0" stroke-linecap="round"/>
<line x1="165" y1="303" x2="174" y2="455" stroke="#39425c" stroke-width="16.0" stroke-linecap="round"/>
<ellipse cx="126" cy="457" rx="13" ry="7" fill="#33373d"/>
<ellipse cx="174" cy="457" rx="13" ry="7" fill="#33373d"/>
<polygon points="118,197 182,197 180,305 120,305" fill="#7a5230" stroke="#1a1a1a" stroke-width="5" stroke-linejoin="round"/>
<line x1="120" y1="199" x2="46" y2="167" stroke="#1a1a1a" stroke-width="13.0" stroke-linecap="round"/>
<line x1="180" y1="199" x2="254" y2="167" stroke="#1a1a1a" stroke-width="13.0" stroke-linecap="round"/>
<line x1="150" y1="197" x2="150" y2="166" stroke="#1a1a1a" stroke-width="13.0" stroke-linecap="round"/>
<path d="M 120.0 197 L 180.0 197 L 178.0 315 L 122.0 315 Z" fill="#caa46a" stroke="#1a1a1a" stroke-width="4" stroke-linejoin="round"/>
<path d="M 128.0 301 L 172.0 301 L 176.0 425 Q 150.0 439 124.0 425 Z" fill="#6b4a2b" stroke="#1a1a1a" stroke-width="4" stroke-linejoin="round"/>
<line x1="138" y1="315" x2="138" y2="415" stroke="#4a3018" stroke-width="2" stroke-linecap="round"/>
<line x1="162" y1="315" x2="162" y2="415" stroke="#4a3018" stroke-width="2" stroke-linecap="round"/>
<ellipse cx="150" cy="209" rx="34" ry="13" fill="#ffffff" stroke="#1a1a1a" stroke-width="3"/>
<ellipse cx="150" cy="209" rx="25" ry="9" fill="#e23b3b" stroke="#1a1a1a" stroke-width="2"/>
<ellipse cx="150" cy="209" rx="14" ry="6" fill="#1a1a1a" stroke="#1a1a1a" stroke-width="2"/>
<circle id="h1" data-fig="ma" class="skin" cx="150" cy="130" r="40" fill="#5e3618" stroke="#1a1a1a" stroke-width="6"/>
<path d="M 110.0 130.0 Q 110.0 80.0 150 80.0 Q 190.0 80.0 190.0 130.0 Q 150 103.0 110.0 130.0 Z" fill="#241c14" stroke="#1a1a1a" stroke-width="3" stroke-linejoin="round"/>
<path d="M 332.0 197.0 L 392.0 197.0 L 392.0 287.0 L 418.0 389.0 L 306.0 389.0 L 332.0 287.0 Z" fill="#3f6fb0" stroke="#1a1a1a" stroke-width="5" stroke-linejoin="round"/>
<line x1="344" y1="389" x2="338" y2="455" stroke="#1a1a1a" stroke-width="13.0" stroke-linecap="round"/>
<line x1="380" y1="389" x2="386" y2="455" stroke="#1a1a1a" stroke-width="13.0" stroke-linecap="round"/>
<ellipse cx="338" cy="457" rx="13" ry="7" fill="#33373d"/>
<ellipse cx="386" cy="457" rx="13" ry="7" fill="#33373d"/>
<line x1="332" y1="199" x2="258" y2="167" stroke="#1a1a1a" stroke-width="13.0" stroke-linecap="round"/>
<line x1="392" y1="199" x2="466" y2="167" stroke="#1a1a1a" stroke-width="13.0" stroke-linecap="round"/>
<line x1="362" y1="197" x2="362" y2="166" stroke="#1a1a1a" stroke-width="13.0" stroke-linecap="round"/>
<path d="M 315.0 184.0 L 315.0 128.0 Q 315.0 76.0 362 76.0 Q 409.0 76.0 409.0 128.0 L 409.0 184.0 L 396.0 184.0 L 396.0 130.0 Q 396.0 96.0 362 96.0 Q 328.0 96.0 328.0 130.0 L 328.0 184.0 Z" fill="#5a3a1f" stroke="#1a1a1a" stroke-width="3" stroke-linejoin="round"/>
<path d="M 330.0 197 L 394.0 197 L 392.0 299 L 332.0 299 Z" fill="#1a1a1a" stroke="#1a1a1a" stroke-width="4" stroke-linejoin="round"/>
<line x1="332" y1="215" x2="392" y2="215" stroke="#e23b3b" stroke-width="5" stroke-linecap="round"/>
<line x1="332" y1="239" x2="392" y2="239" stroke="#e23b3b" stroke-width="5" stroke-linecap="round"/>
<line x1="332" y1="263" x2="392" y2="263" stroke="#e23b3b" stroke-width="5" stroke-linecap="round"/>
<line x1="332" y1="287" x2="392" y2="287" stroke="#e23b3b" stroke-width="5" stroke-linecap="round"/>
<line x1="332" y1="227" x2="392" y2="227" stroke="#ffd24a" stroke-width="5" stroke-linecap="round"/>
<line x1="332" y1="251" x2="392" y2="251" stroke="#ffd24a" stroke-width="5" stroke-linecap="round"/>
<line x1="332" y1="275" x2="392" y2="275" stroke="#ffd24a" stroke-width="5" stroke-linecap="round"/>
<path d="M 332.0 299 L 392.0 299 L 406.0 443 L 318.0 443 Z" fill="#5a3a22" stroke="#1a1a1a" stroke-width="4" stroke-linejoin="round"/>
<line x1="332" y1="335" x2="392" y2="335" stroke="#3a2614" stroke-width="2" stroke-linecap="round"/>
<ellipse cx="362" cy="203" rx="30" ry="11" fill="#ffffff" stroke="#1a1a1a" stroke-width="3"/>
<ellipse cx="362" cy="203" rx="22" ry="8" fill="#e23b3b" stroke="#1a1a1a" stroke-width="2"/>
<ellipse cx="362" cy="203" rx="12" ry="5" fill="#3b82d6" stroke="#1a1a1a" stroke-width="2"/>
<path d="M 315.0 184.0 L 315.0 128.0 Q 315.0 76.0 362.0 76.0 Q 409.0 76.0 409.0 128.0 L 409.0 184.0 L 396.0 184.0 L 396.0 130.0 Q 396.0 96.0 362.0 96.0 Q 328.0 96.0 328.0 130.0 L 328.0 184.0 Z" fill="#241c14" stroke="#1a1a1a" stroke-width="3"/>
<circle id="h2" data-fig="fa" class="skin" cx="362" cy="130" r="40" fill="#5e3618" stroke="#1a1a1a" stroke-width="6"/>
<path d="M 324.0 96.0 Q 362.0 82.0 400.0 96.0 Q 362.0 92.0 324.0 96.0 Z" fill="#241c14" stroke="#1a1a1a" stroke-width="3"/>
<path d="M 316.0 96 L 340.0 60 L 384.0 60 L 408.0 96 Z" fill="#9e2b25" stroke="#1a1a1a" stroke-width="4" stroke-linejoin="round"/>
<ellipse cx="362" cy="96" rx="46" ry="10" fill="#7a1c14" stroke="#1a1a1a" stroke-width="3"/>
<ellipse cx="362" cy="60" rx="22" ry="6" fill="#9e2b25" stroke="#1a1a1a" stroke-width="3"/>
<path d="M 256 179.0 C 235.2 161.4 235.2 140.6 256 150.2 C 276.8 140.6 276.8 161.4 256 179.0 Z" fill="#e0473c" stroke="#1a1a1a" stroke-width="4" stroke-linejoin="round"/>
<line x1="256" y1="94" x2="256" y2="138" stroke="#5a6a8a" stroke-width="4.2" stroke-linecap="round"/>
<line x1="228" y1="96" x2="284" y2="96" stroke="#5a6a8a" stroke-width="3.5999999999999996" stroke-linecap="round"/>
<line x1="245" y1="138" x2="267" y2="138" stroke="#5a6a8a" stroke-width="4.2" stroke-linecap="round"/>
<line x1="228" y1="96" x2="220" y2="113" stroke="#5a6a8a" stroke-width="1.7999999999999998" stroke-linecap="round"/>
<line x1="228" y1="96" x2="237" y2="113" stroke="#5a6a8a" stroke-width="1.7999999999999998" stroke-linecap="round"/>
<path d="M 218.8 112.8 Q 228.4 122.4 238.0 112.8 Z" fill="#cfd6e2" stroke="#5a6a8a" stroke-width="3" stroke-linejoin="round"/>
<line x1="284" y1="96" x2="275" y2="113" stroke="#5a6a8a" stroke-width="1.7999999999999998" stroke-linecap="round"/>
<line x1="284" y1="96" x2="292" y2="113" stroke="#5a6a8a" stroke-width="1.7999999999999998" stroke-linecap="round"/>
<path d="M 274.0 112.8 Q 283.6 122.4 293.20000000000005 112.8 Z" fill="#cfd6e2" stroke="#5a6a8a" stroke-width="3" stroke-linejoin="round"/>
</svg>
