<svg data-cover="arms:covered" xmlns="http://www.w3.org/2000/svg" viewBox="22.34 52.21 438.30 438.30"><metadata id="sah">{"v":1,"fig":[["h1","ma"]]}</metadata>
<line x1="241" y1="303" x2="232" y2="455" stroke="#39425c" stroke-width="16.0" stroke-linecap="round"/>
<line x1="271" y1="303" x2="280" y2="455" stroke="#39425c" stroke-width="16.0" stroke-linecap="round"/>
<ellipse cx="232" cy="457" rx="13" ry="7" fill="#33373d"/>
<ellipse cx="280" cy="457" rx="13" ry="7" fill="#33373d"/>
<polygon points="224,197 288,197 286,305 226,305" fill="#caa46a" stroke="#1a1a1a" stroke-width="5" stroke-linejoin="round"/>
<line x1="226" y1="199" x2="194" y2="305" stroke="#1a1a1a" stroke-width="13.0" stroke-linecap="round"/>
<line x1="286" y1="199" x2="318" y2="305" stroke="#1a1a1a" stroke-width="13.0" stroke-linecap="round"/>
<line x1="256" y1="197" x2="256" y2="166" stroke="#1a1a1a" stroke-width="13.0" stroke-linecap="round"/>
<path d="M 226.0 197 L 286.0 197 L 284.0 315 L 228.0 315 Z" fill="#caa46a" stroke="#1a1a1a" stroke-width="4" stroke-linejoin="round"/>
<path d="M 234.0 301 L 278.0 301 L 282.0 425 Q 256.0 439 230.0 425 Z" fill="#6b4a2b" stroke="#1a1a1a" stroke-width="4" stroke-linejoin="round"/>
<line x1="244" y1="315" x2="244" y2="415" stroke="#4a3018" stroke-width="2" stroke-linecap="round"/>
<line x1="268" y1="315" x2="268" y2="415" stroke="#4a3018" stroke-width="2" stroke-linecap="round"/>
<ellipse cx="256" cy="209" rx="34" ry="13" fill="#ffffff" stroke="#1a1a1a" stroke-width="3"/>
<ellipse cx="256" cy="209" rx="25" ry="9" fill="#e23b3b" stroke="#1a1a1a" stroke-width="2"/>
<ellipse cx="256" cy="209" rx="14" ry="6" fill="#1a1a1a" stroke="#1a1a1a" stroke-width="2"/>
<line x1="226" y1="199" x2="194" y2="305" stroke="#ffffff" stroke-width="20" stroke-linecap="round"/>
<line x1="226" y1="199" x2="194" y2="305" stroke="#1a1a1a" stroke-width="13.0" stroke-linecap="round"/>
<line x1="286" y1="199" x2="318" y2="305" stroke="#ffffff" stroke-width="20" stroke-linecap="round"/>
<line x1="286" y1="199" x2="318" y2="305" stroke="#1a1a1a" stroke-width="13.0" stroke-linecap="round"/>
<circle id="h1" data-fig="ma" class="skin" cx="256" cy="130" r="40" fill="#5e3618" stroke="#1a1a1a" stroke-width="6"/>
<path d="M 216.0 130.0 Q 216.0 80.0 256 80.0 Q 296.0 80.0 296.0 130.0 Q 256 103.0 216.0 130.0 Z" fill="#241c14" stroke="#1a1a1a" stroke-width="3" stroke-linejoin="round"/>
<circle cx="206" cy="305" r="5" fill="#2b6fb0" stroke="#1a1a1a" stroke-width="0"/>
<line x1="213" y1="305" x2="233" y2="305" stroke="#2b6fb0" stroke-width="4" stroke-linecap="round"/>
<line x1="212" y1="309" x2="228" y2="321" stroke="#2b6fb0" stroke-width="4" stroke-linecap="round"/>
<line x1="208" y1="312" x2="214" y2="331" stroke="#2b6fb0" stroke-width="4" stroke-linecap="round"/>
<line x1="204" y1="312" x2="198" y2="331" stroke="#2b6fb0" stroke-width="4" stroke-linecap="round"/>
<line x1="200" y1="309" x2="184" y2="321" stroke="#2b6fb0" stroke-width="4" stroke-linecap="round"/>
<line x1="199" y1="305" x2="179" y2="305" stroke="#2b6fb0" stroke-width="4" stroke-linecap="round"/>
<line x1="200" y1="301" x2="184" y2="289" stroke="#2b6fb0" stroke-width="4" stroke-linecap="round"/>
<line x1="204" y1="298" x2="198" y2="279" stroke="#2b6fb0" stroke-width="4" stroke-linecap="round"/>
<line x1="208" y1="298" x2="214" y2="279" stroke="#2b6fb0" stroke-width="4" stroke-linecap="round"/>
<line x1="212" y1="301" x2="228" y2="289" stroke="#2b6fb0" stroke-width="4" stroke-linecap="round"/>
<line x1="171" y1="283" x2="189" y2="283" stroke="#2b6fb0" stroke-width="4" stroke-linecap="round"/>
<line x1="180" y1="274" x2="180" y2="292" stroke="#2b6fb0" stroke-width="4" stroke-linecap="round"/>
<line x1="175" y1="278" x2="185" y2="288" stroke="#2b6fb0" stroke-width="3" stroke-linecap="round"/>
<line x1="175" y1="288" x2="185" y2="278" stroke="#2b6fb0" stroke-width="3" stroke-linecap="round"/>
</svg>
