<svg data-cover="arms:covered" xmlns="http://www.w3.org/2000/svg" viewBox="0 0 512 512"><metadata id="sah">{"v":1,"fig":[["h1","ma"]]}</metadata>
<line x1="241" y1="303" x2="232" y2="455" stroke="#39425c" stroke-width="16.0" stroke-linecap="round"/>
<line x1="271" y1="303" x2="280" y2="455" stroke="#39425c" stroke-width="16.0" stroke-linecap="round"/>
<ellipse cx="232" cy="457" rx="13" ry="7" fill="#33373d"/>
<ellipse cx="280" cy="457" rx="13" ry="7" fill="#33373d"/>
<polygon points="224,197 288,197 286,305 226,305" fill="#caa46a" stroke="#1a1a1a" stroke-width="5" stroke-linejoin="round"/>
<line x1="226" y1="199" x2="210" y2="305" stroke="#1a1a1a" stroke-width="13.0" stroke-linecap="round"/>
<line x1="286" y1="199" x2="334" y2="221" stroke="#1a1a1a" stroke-width="13.0" stroke-linecap="round"/>
<line x1="256" y1="197" x2="256" y2="166" stroke="#1a1a1a" stroke-width="13.0" stroke-linecap="round"/>
<path d="M 226.0 197 L 286.0 197 L 284.0 315 L 228.0 315 Z" fill="#caa46a" stroke="#1a1a1a" stroke-width="4" stroke-linejoin="round"/>
<path d="M 234.0 301 L 278.0 301 L 282.0 425 Q 256.0 439 230.0 425 Z" fill="#6b4a2b" stroke="#1a1a1a" stroke-width="4" stroke-linejoin="round"/>
<line x1="244" y1="315" x2="244" y2="415" stroke="#4a3018" stroke-width="2" stroke-linecap="round"/>
<line x1="268" y1="315" x2="268" y2="415" stroke="#4a3018" stroke-width="2" stroke-linecap="round"/>
<ellipse cx="256" cy="209" rx="34" ry="13" fill="#ffffff" stroke="#1a1a1a" stroke-width="3"/>
<ellipse cx="256" cy="209" rx="25" ry="9" fill="#e23b3b" stroke="#1a1a1a" stroke-width="2"/>
<ellipse cx="256" cy="209" rx="14" ry="6" fill="#1a1a1a" stroke="#1a1a1a" stroke-width="2"/>
<line x1="226" y1="199" x2="210" y2="305" stroke="#ffffff" stroke-width="20" stroke-linecap="round"/>
<line x1="226" y1="199" x2="210" y2="305" stroke="#1a1a1a" stroke-width="13.0" stroke-linecap="round"/>
<line x1="286" y1="199" x2="334" y2="221" stroke="#ffffff" stroke-width="20" stroke-linecap="round"/>
<line x1="286" y1="199" x2="334" y2="221" stroke="#1a1a1a" stroke-width="13.0" stroke-linecap="round"/>
<line x1="334" y1="221" x2="348" y2="325" stroke="#ffffff" stroke-width="23" stroke-linecap="round"/>
<line x1="334" y1="221" x2="348" y2="325" stroke="#1a1a1a" stroke-width="16" stroke-linecap="round"/>
<line x1="334" y1="221" x2="348" y2="325" stroke="#ffffff" stroke-width="17" stroke-linecap="round"/>
<line x1="334" y1="221" x2="348" y2="325" stroke="#9a6a3a" stroke-width="10" stroke-linecap="round"/>
<circle id="h1" data-fig="ma" class="skin" cx="256" cy="130" r="40" fill="#5e3618" stroke="#1a1a1a" stroke-width="6"/>
<path d="M 216.0 130.0 Q 216.0 80.0 256 80.0 Q 296.0 80.0 296.0 130.0 Q 256 103.0 216.0 130.0 Z" fill="#241c14" stroke="#1a1a1a" stroke-width="3" stroke-linejoin="round"/>

<polygon points="350.0,371.0 368.0,371.0 364.0,403.0 354.0,403.0" fill="#9aa7b5" stroke="#1a1a1a" stroke-width="3" stroke-linejoin="round"/>

<line x1="334" y1="221" x2="348" y2="325" stroke="#1a1a1a" stroke-width="16" stroke-linecap="round"/><line x1="334" y1="221" x2="348" y2="325" stroke="#9a6a3a" stroke-width="10" stroke-linecap="round"/><path d="M 322 319 L 374 319 L 376 363 Q 348 389 320 363 Z" fill="#c9d1d8" stroke="#1a1a1a" stroke-width="4" stroke-linejoin="round"/></svg>
