<svg data-cover="arms:covered" xmlns="http://www.w3.org/2000/svg" viewBox="0 0 512 512" data-copyright="© 2026 Sensory App House"><!--SAH-COPYRIGHT © 2026 Sensory App House. All rights reserved.--><metadata id="sah-copyright"><rdf:RDF xmlns:rdf="http://www.w3.org/1999/02/22-rdf-syntax-ns#" xmlns:dc="http://purl.org/dc/elements/1.1/" xmlns:cc="http://creativecommons.org/ns#"><cc:Work rdf:about=""><dc:rights><cc:Agent><dc:title>© 2026 Sensory App House. All rights reserved.</dc:title></cc:Agent></dc:rights><dc:creator><cc:Agent><dc:title>Sensory App House (PiCom)</dc:title></cc:Agent></dc:creator><dc:date>2026</dc:date></cc:Work></rdf:RDF></metadata><metadata id="sah">{"v":1,"fig":[["h1","fa"]]}</metadata><g data-fit="1" transform="translate(256 256) scale(1.0080) translate(-265.00 -239.50)">
<polygon points="60,462 470,462 470,382" fill="#eef6fb" stroke="#cfe0ec" stroke-width="2" stroke-linejoin="round"/>
<g transform="rotate(15 256 410)">
<line x1="241" y1="330" x2="216" y2="332" stroke="#39425c" stroke-width="16.0" stroke-linecap="round"/>
<line x1="216" y1="332" x2="218" y2="410" stroke="#39425c" stroke-width="16.0" stroke-linecap="round"/>
<line x1="271" y1="330" x2="296" y2="332" stroke="#39425c" stroke-width="16.0" stroke-linecap="round"/>
<line x1="296" y1="332" x2="294" y2="410" stroke="#39425c" stroke-width="16.0" stroke-linecap="round"/>
<ellipse cx="218" cy="412" rx="13" ry="7" fill="#33373d"/>
<ellipse cx="294" cy="412" rx="13" ry="7" fill="#33373d"/>
<polygon points="224,152 288,152 286,332 226,332" fill="#e0473c" stroke="#1a1a1a" stroke-width="5" stroke-linejoin="round"/>
<line x1="226" y1="154" x2="226" y2="300" stroke="#1a1a1a" stroke-width="13.0" stroke-linecap="round"/>
<line x1="286" y1="154" x2="286" y2="300" stroke="#1a1a1a" stroke-width="13.0" stroke-linecap="round"/>
<line x1="256" y1="152" x2="256" y2="121" stroke="#1a1a1a" stroke-width="13.0" stroke-linecap="round"/>
<path d="M 209.0 139.0 L 209.0 83.0 Q 209.0 31.0 256.0 31.0 Q 303.0 31.0 303.0 83.0 L 303.0 139.0 L 290.0 139.0 L 290.0 85.0 Q 290.0 51.0 256.0 51.0 Q 222.0 51.0 222.0 85.0 L 222.0 139.0 Z" fill="#5a3a1f" stroke="#1a1a1a" stroke-width="3"/>
<g transform="translate(0,-45)"><path d="M 222.0 197 L 290.0 197 L 288.0 335 L 224.0 335 Z" fill="#ffffff" stroke="#1a1a1a" stroke-width="4"/>
<path d="M 224.0 197 L 288.0 197 L 286.0 299 L 226.0 299 Z" fill="#1a1a1a" stroke="#1a1a1a" stroke-width="4" stroke-linejoin="round"/>
<line x1="226" y1="215" x2="286" y2="215" stroke="#e23b3b" stroke-width="5" stroke-linecap="round"/>
<line x1="226" y1="239" x2="286" y2="239" stroke="#e23b3b" stroke-width="5" stroke-linecap="round"/>
<line x1="226" y1="263" x2="286" y2="263" stroke="#e23b3b" stroke-width="5" stroke-linecap="round"/>
<line x1="226" y1="287" x2="286" y2="287" stroke="#e23b3b" stroke-width="5" stroke-linecap="round"/>
<line x1="226" y1="227" x2="286" y2="227" stroke="#ffd24a" stroke-width="5" stroke-linecap="round"/>
<line x1="226" y1="251" x2="286" y2="251" stroke="#ffd24a" stroke-width="5" stroke-linecap="round"/>
<line x1="226" y1="275" x2="286" y2="275" stroke="#ffd24a" stroke-width="5" stroke-linecap="round"/>
<line x1="226" y1="335" x2="286" y2="335" stroke="#3a2614" stroke-width="2" stroke-linecap="round"/>
<ellipse cx="256" cy="203" rx="30" ry="11" fill="#ffffff" stroke="#1a1a1a" stroke-width="3"/>
<ellipse cx="256" cy="203" rx="22" ry="8" fill="#e23b3b" stroke="#1a1a1a" stroke-width="2"/>
<ellipse cx="256" cy="203" rx="12" ry="5" fill="#3b82d6" stroke="#1a1a1a" stroke-width="2"/></g>
<line x1="226" y1="154" x2="226" y2="300" stroke="#ffffff" stroke-width="20" stroke-linecap="round"/>
<line x1="226" y1="154" x2="226" y2="300" stroke="#1a1a1a" stroke-width="13.0" stroke-linecap="round"/>
<line x1="286" y1="154" x2="286" y2="300" stroke="#ffffff" stroke-width="20" stroke-linecap="round"/>
<line x1="286" y1="154" x2="286" y2="300" stroke="#1a1a1a" stroke-width="13.0" stroke-linecap="round"/>
<path d="M 209.0 139.0 L 209.0 83.0 Q 209.0 31.0 256.0 31.0 Q 303.0 31.0 303.0 83.0 L 303.0 139.0 L 290.0 139.0 L 290.0 85.0 Q 290.0 51.0 256.0 51.0 Q 222.0 51.0 222.0 85.0 L 222.0 139.0 Z" fill="#241c14" stroke="#1a1a1a" stroke-width="3"/>
<circle id="h1" data-fig="fa" class="skin" cx="256" cy="85" r="40" fill="#5e3618" stroke="#1a1a1a" stroke-width="6"/>
<path d="M 218.0 51.0 Q 256.0 37.0 294.0 51.0 Q 256.0 47.0 218.0 51.0 Z" fill="#241c14" stroke="#1a1a1a" stroke-width="3"/>
<g transform="translate(0,-45)"><path d="M 210.0 96 L 234.0 60 L 278.0 60 L 302.0 96 Z" fill="#9e2b25" stroke="#1a1a1a" stroke-width="4" stroke-linejoin="round"/>
<ellipse cx="256" cy="96" rx="46" ry="10" fill="#7a1c14" stroke="#1a1a1a" stroke-width="3"/>
<ellipse cx="256" cy="60" rx="22" ry="6" fill="#9e2b25" stroke="#1a1a1a" stroke-width="3"/></g>
<path d="M 216 61 A 42 42 0 0 1 296 61 Z" fill="#1f5fae" stroke="#1a1a1a" stroke-width="4" stroke-linejoin="round"/>
<rect x="214" y="59" width="84" height="14" rx="4" fill="#1f5fae" stroke="#1a1a1a" stroke-width="3"/>
<circle cx="256" cy="15" r="11" fill="#fff" stroke="#1a1a1a" stroke-width="2"/>
<path d="M 160.0 416 q -22 -2 -22 -16 q 0 -10 24 -8 q 96 -6 188 0 q 24 -2 24 8 q 0 14 -22 16 q -96 8 -192 0 Z" fill="#2b6fb0" stroke="#1a1a1a" stroke-width="4" stroke-linejoin="round"/>
<rect x="200" y="407" width="26" height="8" rx="2" fill="#39414b" stroke="#1a1a1a" stroke-width="2"/>
<rect x="290" y="407" width="26" height="8" rx="2" fill="#39414b" stroke="#1a1a1a" stroke-width="2"/>
</g>
</g></svg>
