<svg data-cover="arms:covered" xmlns="http://www.w3.org/2000/svg" viewBox="0 0 512 512" data-copyright="© 2026 Sensory App House"><!--SAH-COPYRIGHT © 2026 Sensory App House. All rights reserved.--><metadata id="sah-copyright"><rdf:RDF xmlns:rdf="http://www.w3.org/1999/02/22-rdf-syntax-ns#" xmlns:dc="http://purl.org/dc/elements/1.1/" xmlns:cc="http://creativecommons.org/ns#"><cc:Work rdf:about=""><dc:rights><cc:Agent><dc:title>© 2026 Sensory App House. All rights reserved.</dc:title></cc:Agent></dc:rights><dc:creator><cc:Agent><dc:title>Sensory App House (PiCom)</dc:title></cc:Agent></dc:creator><dc:date>2026</dc:date></cc:Work></rdf:RDF></metadata><metadata id="sah">{"v":1,"fig":[["h1","fa"]]}</metadata><g data-fit="1" transform="translate(256 256) scale(1.0883) translate(-298.50 -257.00)">
<line x1="241" y1="303" x2="232" y2="455" stroke="#39425c" stroke-width="16.0" stroke-linecap="round"/>
<line x1="271" y1="303" x2="280" y2="455" stroke="#39425c" stroke-width="16.0" stroke-linecap="round"/>
<ellipse cx="232" cy="457" rx="13" ry="7" fill="#33373d"/>
<ellipse cx="280" cy="457" rx="13" ry="7" fill="#33373d"/>
<polygon points="224,197 288,197 286,305 226,305" fill="#dfe6ec" stroke="#1a1a1a" stroke-width="5" stroke-linejoin="round"/>
<line x1="226" y1="199" x2="210" y2="305" stroke="#1a1a1a" stroke-width="13.0" stroke-linecap="round"/>
<line x1="286" y1="199" x2="334" y2="221" stroke="#1a1a1a" stroke-width="13.0" stroke-linecap="round"/>
<line x1="256" y1="197" x2="256" y2="166" stroke="#1a1a1a" stroke-width="13.0" stroke-linecap="round"/>
<path d="M 209.0 184.0 L 209.0 128.0 Q 209.0 76.0 256.0 76.0 Q 303.0 76.0 303.0 128.0 L 303.0 184.0 L 290.0 184.0 L 290.0 130.0 Q 290.0 96.0 256.0 96.0 Q 222.0 96.0 222.0 130.0 L 222.0 184.0 Z" fill="#5a3a1f" stroke="#1a1a1a" stroke-width="3"/>
<path d="M 224.0 197 L 288.0 197 L 286.0 299 L 226.0 299 Z" fill="#1a1a1a" stroke="#1a1a1a" stroke-width="4" stroke-linejoin="round"/>
<line x1="226" y1="215" x2="286" y2="215" stroke="#e23b3b" stroke-width="5" stroke-linecap="round"/>
<line x1="226" y1="239" x2="286" y2="239" stroke="#e23b3b" stroke-width="5" stroke-linecap="round"/>
<line x1="226" y1="263" x2="286" y2="263" stroke="#e23b3b" stroke-width="5" stroke-linecap="round"/>
<line x1="226" y1="287" x2="286" y2="287" stroke="#e23b3b" stroke-width="5" stroke-linecap="round"/>
<line x1="226" y1="227" x2="286" y2="227" stroke="#ffd24a" stroke-width="5" stroke-linecap="round"/>
<line x1="226" y1="251" x2="286" y2="251" stroke="#ffd24a" stroke-width="5" stroke-linecap="round"/>
<line x1="226" y1="275" x2="286" y2="275" stroke="#ffd24a" stroke-width="5" stroke-linecap="round"/>
<path d="M 226.0 299 L 286.0 299 L 300.0 443 L 212.0 443 Z" fill="#5a3a22" stroke="#1a1a1a" stroke-width="4" stroke-linejoin="round"/>
<line x1="226" y1="335" x2="286" y2="335" stroke="#3a2614" stroke-width="2" stroke-linecap="round"/>
<ellipse cx="256" cy="203" rx="30" ry="11" fill="#ffffff" stroke="#1a1a1a" stroke-width="3"/>
<ellipse cx="256" cy="203" rx="22" ry="8" fill="#e23b3b" stroke="#1a1a1a" stroke-width="2"/>
<ellipse cx="256" cy="203" rx="12" ry="5" fill="#3b82d6" stroke="#1a1a1a" stroke-width="2"/>
<line x1="226" y1="199" x2="210" y2="305" stroke="#ffffff" stroke-width="20" stroke-linecap="round"/>
<line x1="226" y1="199" x2="210" y2="305" stroke="#1a1a1a" stroke-width="13.0" stroke-linecap="round"/>
<line x1="286" y1="199" x2="334" y2="221" stroke="#ffffff" stroke-width="20" stroke-linecap="round"/>
<line x1="286" y1="199" x2="334" y2="221" stroke="#1a1a1a" stroke-width="13.0" stroke-linecap="round"/>
<path d="M 209.0 184.0 L 209.0 128.0 Q 209.0 76.0 256.0 76.0 Q 303.0 76.0 303.0 128.0 L 303.0 184.0 L 290.0 184.0 L 290.0 130.0 Q 290.0 96.0 256.0 96.0 Q 222.0 96.0 222.0 130.0 L 222.0 184.0 Z" fill="#241c14" stroke="#1a1a1a" stroke-width="3"/>
<circle id="h1" data-fig="fa" class="skin" cx="256" cy="130" r="40" fill="#5e3618" stroke="#1a1a1a" stroke-width="6"/>
<path d="M 218.0 96.0 Q 256.0 82.0 294.0 96.0 Q 256.0 92.0 218.0 96.0 Z" fill="#241c14" stroke="#1a1a1a" stroke-width="3"/>
<path d="M 210.0 96 L 234.0 60 L 278.0 60 L 302.0 96 Z" fill="#9e2b25" stroke="#1a1a1a" stroke-width="4" stroke-linejoin="round"/>
<ellipse cx="256" cy="96" rx="46" ry="10" fill="#7a1c14" stroke="#1a1a1a" stroke-width="3"/>
<ellipse cx="256" cy="60" rx="22" ry="6" fill="#9e2b25" stroke="#1a1a1a" stroke-width="3"/>
<rect x="214" y="100" width="84" height="16" rx="4" fill="#3fae5a" stroke="#1a1a1a" stroke-width="3"/>
<line x1="334" y1="221" x2="381" y2="161" stroke="#6b4a2b" stroke-width="8" stroke-linecap="round"/>
<ellipse cx="396" cy="143" rx="30" ry="38" fill="#fff" stroke="#1a1a1a" stroke-width="5"/>
<line x1="380" y1="113" x2="380" y2="173" stroke="#9aa7b3" stroke-width="1.5" stroke-linecap="round"/>
<line x1="396" y1="113" x2="396" y2="173" stroke="#9aa7b3" stroke-width="1.5" stroke-linecap="round"/>
<line x1="412" y1="113" x2="412" y2="173" stroke="#9aa7b3" stroke-width="1.5" stroke-linecap="round"/>
<line x1="370" y1="127" x2="422" y2="127" stroke="#9aa7b3" stroke-width="1.5" stroke-linecap="round"/>
<line x1="370" y1="143" x2="422" y2="143" stroke="#9aa7b3" stroke-width="1.5" stroke-linecap="round"/>
<line x1="370" y1="159" x2="422" y2="159" stroke="#9aa7b3" stroke-width="1.5" stroke-linecap="round"/>
<circle cx="190" cy="72" r="20" fill="#cfe04a" stroke="#1a1a1a" stroke-width="3"/>
<line x1="190" y1="96" x2="190" y2="128" stroke="#bcd0dc" stroke-width="3" stroke-linecap="round"/>
<line x1="178" y1="104" x2="178" y2="130" stroke="#bcd0dc" stroke-width="3" stroke-linecap="round"/>
</g></svg>
