<svg data-cover="arms:covered" xmlns="http://www.w3.org/2000/svg" viewBox="46.24 52.21 438.30 438.30"><metadata id="sah">{"v":1,"fig":[["h1","ma"]]}</metadata>
<line x1="150" y1="452" x2="372" y2="452" stroke="#9aa7b5" stroke-width="5" stroke-linecap="round"/>
<line x1="241" y1="303" x2="232" y2="455" stroke="#39425c" stroke-width="16.0" stroke-linecap="round"/>
<line x1="271" y1="303" x2="280" y2="455" stroke="#39425c" stroke-width="16.0" stroke-linecap="round"/>
<ellipse cx="232" cy="457" rx="13" ry="7" fill="#33373d"/>
<ellipse cx="280" cy="457" rx="13" ry="7" fill="#33373d"/>
<polygon points="224,197 288,197 286,305 226,305" fill="#caa46a" stroke="#1a1a1a" stroke-width="5" stroke-linejoin="round"/>
<line x1="226" y1="199" x2="210" y2="305" stroke="#1a1a1a" stroke-width="13.0" stroke-linecap="round"/>
<line x1="286" y1="199" x2="334" y2="221" stroke="#1a1a1a" stroke-width="13.0" stroke-linecap="round"/>
<line x1="256" y1="197" x2="256" y2="166" stroke="#1a1a1a" stroke-width="13.0" stroke-linecap="round"/>
<path d="M 226.0 197 L 286.0 197 L 284.0 315 L 228.0 315 Z" fill="#caa46a" stroke="#1a1a1a" stroke-width="4" stroke-linejoin="round"/>
<path d="M 234.0 301 L 278.0 301 L 282.0 425 Q 256.0 439 230.0 425 Z" fill="#6b4a2b" stroke="#1a1a1a" stroke-width="4" stroke-linejoin="round"/>
<line x1="244" y1="315" x2="244" y2="415" stroke="#4a3018" stroke-width="2" stroke-linecap="round"/>
<line x1="268" y1="315" x2="268" y2="415" stroke="#4a3018" stroke-width="2" stroke-linecap="round"/>
<ellipse cx="256" cy="209" rx="34" ry="13" fill="#ffffff" stroke="#1a1a1a" stroke-width="3"/>
<ellipse cx="256" cy="209" rx="25" ry="9" fill="#e23b3b" stroke="#1a1a1a" stroke-width="2"/>
<ellipse cx="256" cy="209" rx="14" ry="6" fill="#1a1a1a" stroke="#1a1a1a" stroke-width="2"/>
<line x1="226" y1="199" x2="210" y2="305" stroke="#ffffff" stroke-width="20" stroke-linecap="round"/>
<line x1="226" y1="199" x2="210" y2="305" stroke="#1a1a1a" stroke-width="13.0" stroke-linecap="round"/>
<line x1="286" y1="199" x2="334" y2="221" stroke="#ffffff" stroke-width="20" stroke-linecap="round"/>
<line x1="286" y1="199" x2="334" y2="221" stroke="#1a1a1a" stroke-width="13.0" stroke-linecap="round"/>
<circle id="h1" data-fig="ma" class="skin" cx="256" cy="130" r="40" fill="#5e3618" stroke="#1a1a1a" stroke-width="6"/>
<path d="M 216.0 130.0 Q 216.0 80.0 256 80.0 Q 296.0 80.0 296.0 130.0 Q 256 103.0 216.0 130.0 Z" fill="#241c14" stroke="#1a1a1a" stroke-width="3" stroke-linejoin="round"/>
<rect x="278" y="360" width="104" height="92" rx="4" fill="#dfe7ef" stroke="#1a1a1a" stroke-width="4"/>
<rect x="308" y="352" width="44" height="12" rx="2" fill="#9aa7b5" stroke="#1a1a1a" stroke-width="3"/>
<rect x="315" y="354" width="30" height="5" rx="0" fill="#1a1a1a" stroke="#1a1a1a" stroke-width="0"/>
<line x1="300" y1="410" x2="322" y2="434" stroke="#1a1a1a" stroke-width="21.0" stroke-linecap="round"/><line x1="322" y1="434" x2="364" y2="380" stroke="#1a1a1a" stroke-width="21.0" stroke-linecap="round"/><line x1="300" y1="410" x2="322" y2="434" stroke="#2f9e4a" stroke-width="15.5" stroke-linecap="round"/>
<line x1="322" y1="434" x2="364" y2="380" stroke="#2f9e4a" stroke-width="15.5" stroke-linecap="round"/>
<rect x="322" y="197" width="34" height="44" rx="2" fill="#ffffff" stroke="#1a1a1a" stroke-width="3"/>
<line x1="330" y1="211" x2="348" y2="229" stroke="#e0473c" stroke-width="4" stroke-linecap="round"/>
<line x1="348" y1="211" x2="330" y2="229" stroke="#e0473c" stroke-width="4" stroke-linecap="round"/>
<line x1="330" y1="370" x2="345" y2="355" stroke="#1a1a1a" stroke-width="17.0" stroke-linecap="round"/><line x1="330" y1="370" x2="315" y2="355" stroke="#1a1a1a" stroke-width="17.0" stroke-linecap="round"/><line x1="330" y1="318" x2="330" y2="370" stroke="#1a1a1a" stroke-width="17.0" stroke-linecap="round"/><line x1="330" y1="318" x2="330" y2="370" stroke="#e0473c" stroke-width="11.5" stroke-linecap="round"/>
<line x1="330" y1="370" x2="315" y2="355" stroke="#e0473c" stroke-width="11.5" stroke-linecap="round"/>
<line x1="330" y1="370" x2="345" y2="355" stroke="#e0473c" stroke-width="11.5" stroke-linecap="round"/>
</svg>
