<svg data-cover="arms:covered" xmlns="http://www.w3.org/2000/svg" viewBox="0 0 512 512" data-copyright="© 2026 Sensory App House"><!--SAH-COPYRIGHT © 2026 Sensory App House. All rights reserved.--><metadata id="sah-copyright"><rdf:RDF xmlns:rdf="http://www.w3.org/1999/02/22-rdf-syntax-ns#" xmlns:dc="http://purl.org/dc/elements/1.1/" xmlns:cc="http://creativecommons.org/ns#"><cc:Work rdf:about=""><dc:rights><cc:Agent><dc:title>© 2026 Sensory App House. All rights reserved.</dc:title></cc:Agent></dc:rights><dc:creator><cc:Agent><dc:title>Sensory App House (PiCom)</dc:title></cc:Agent></dc:creator><dc:date>2026</dc:date></cc:Work></rdf:RDF></metadata><metadata id="sah">{"v":1,"fig":[["h1","fa"],["h2","ma"]]}</metadata><g data-fit="1" transform="translate(256 256) scale(1.1553) translate(-285.50 -266.00)">
<path d="M 160.0 194.0 L 220.0 194.0 L 220.0 284.0 L 246.0 386.0 L 134.0 386.0 L 160.0 284.0 Z" fill="#cc5544" stroke="#1a1a1a" stroke-width="5" stroke-linejoin="round"/>
<line x1="172" y1="386" x2="166" y2="452" stroke="#1a1a1a" stroke-width="13.0" stroke-linecap="round"/>
<line x1="208" y1="386" x2="214" y2="452" stroke="#1a1a1a" stroke-width="13.0" stroke-linecap="round"/>
<ellipse cx="166" cy="454" rx="13" ry="7" fill="#33373d"/>
<ellipse cx="214" cy="454" rx="13" ry="7" fill="#33373d"/>
<line x1="160" y1="196" x2="166" y2="264" stroke="#1a1a1a" stroke-width="13.0" stroke-linecap="round"/>
<line x1="220" y1="196" x2="214" y2="264" stroke="#1a1a1a" stroke-width="13.0" stroke-linecap="round"/>
<line x1="190" y1="194" x2="190" y2="163" stroke="#1a1a1a" stroke-width="13.0" stroke-linecap="round"/>
<path d="M 143.0 181.0 L 143.0 125.0 Q 143.0 73.0 190 73.0 Q 237.0 73.0 237.0 125.0 L 237.0 181.0 L 224.0 181.0 L 224.0 127.0 Q 224.0 93.0 190 93.0 Q 156.0 93.0 156.0 127.0 L 156.0 181.0 Z" fill="#5a3a1f" stroke="#1a1a1a" stroke-width="3" stroke-linejoin="round"/>
<g transform="translate(0,-3)"><path d="M 158.0 197 L 222.0 197 L 220.0 299 L 160.0 299 Z" fill="#1a1a1a" stroke="#1a1a1a" stroke-width="4" stroke-linejoin="round"/>
<line x1="160" y1="215" x2="220" y2="215" stroke="#e23b3b" stroke-width="5" stroke-linecap="round"/>
<line x1="160" y1="239" x2="220" y2="239" stroke="#e23b3b" stroke-width="5" stroke-linecap="round"/>
<line x1="160" y1="263" x2="220" y2="263" stroke="#e23b3b" stroke-width="5" stroke-linecap="round"/>
<line x1="160" y1="287" x2="220" y2="287" stroke="#e23b3b" stroke-width="5" stroke-linecap="round"/>
<line x1="160" y1="227" x2="220" y2="227" stroke="#ffd24a" stroke-width="5" stroke-linecap="round"/>
<line x1="160" y1="251" x2="220" y2="251" stroke="#ffd24a" stroke-width="5" stroke-linecap="round"/>
<line x1="160" y1="275" x2="220" y2="275" stroke="#ffd24a" stroke-width="5" stroke-linecap="round"/>
<path d="M 160.0 299 L 220.0 299 L 234.0 443 L 146.0 443 Z" fill="#5a3a22" stroke="#1a1a1a" stroke-width="4" stroke-linejoin="round"/>
<line x1="160" y1="335" x2="220" y2="335" stroke="#3a2614" stroke-width="2" stroke-linecap="round"/>
<ellipse cx="190" cy="203" rx="30" ry="11" fill="#ffffff" stroke="#1a1a1a" stroke-width="3"/>
<ellipse cx="190" cy="203" rx="22" ry="8" fill="#e23b3b" stroke="#1a1a1a" stroke-width="2"/>
<ellipse cx="190" cy="203" rx="12" ry="5" fill="#3b82d6" stroke="#1a1a1a" stroke-width="2"/></g>
<line x1="160" y1="196" x2="166" y2="264" stroke="#ffffff" stroke-width="20" stroke-linecap="round"/>
<line x1="160" y1="196" x2="166" y2="264" stroke="#1a1a1a" stroke-width="13.0" stroke-linecap="round"/>
<line x1="220" y1="196" x2="214" y2="264" stroke="#ffffff" stroke-width="20" stroke-linecap="round"/>
<line x1="220" y1="196" x2="214" y2="264" stroke="#1a1a1a" stroke-width="13.0" stroke-linecap="round"/>
<path d="M 143.0 181.0 L 143.0 125.0 Q 143.0 73.0 190.0 73.0 Q 237.0 73.0 237.0 125.0 L 237.0 181.0 L 224.0 181.0 L 224.0 127.0 Q 224.0 93.0 190.0 93.0 Q 156.0 93.0 156.0 127.0 L 156.0 181.0 Z" fill="#241c14" stroke="#1a1a1a" stroke-width="3"/>
<circle id="h1" data-fig="fa" class="skin" cx="190" cy="127" r="40" fill="#5e3618" stroke="#1a1a1a" stroke-width="6"/>
<path d="M 152.0 93.0 Q 190.0 79.0 228.0 93.0 Q 190.0 89.0 152.0 93.0 Z" fill="#241c14" stroke="#1a1a1a" stroke-width="3"/>
<g transform="translate(0,-3)"><path d="M 144.0 96 L 168.0 60 L 212.0 60 L 236.0 96 Z" fill="#9e2b25" stroke="#1a1a1a" stroke-width="4" stroke-linejoin="round"/>
<ellipse cx="190" cy="96" rx="46" ry="10" fill="#7a1c14" stroke="#1a1a1a" stroke-width="3"/>
<ellipse cx="190" cy="60" rx="22" ry="6" fill="#9e2b25" stroke="#1a1a1a" stroke-width="3"/></g>
<rect x="150" y="320" width="150" height="14" rx="3" fill="#cdd3da" stroke="#1a1a1a" stroke-width="3"/>
<line x1="160" y1="334" x2="160" y2="452" stroke="#7a4a24" stroke-width="7" stroke-linecap="round"/>
<line x1="290" y1="334" x2="290" y2="452" stroke="#7a4a24" stroke-width="7" stroke-linecap="round"/>
<polygon points="172,304 232,304 226,270 178,270" fill="#2b3a55" stroke="#1a1a1a" stroke-width="3" stroke-linejoin="round"/>
<rect x="180" y="274" width="40" height="26" rx="0" fill="#7ec8f0" stroke="#1a1a1a" stroke-width="0"/>
<rect x="160" y="304" width="84" height="16" rx="2" fill="#bcc6cf" stroke="#1a1a1a" stroke-width="3"/>
<line x1="325" y1="300" x2="316" y2="452" stroke="#39425c" stroke-width="16.0" stroke-linecap="round"/>
<line x1="355" y1="300" x2="364" y2="452" stroke="#39425c" stroke-width="16.0" stroke-linecap="round"/>
<ellipse cx="316" cy="454" rx="13" ry="7" fill="#33373d"/>
<ellipse cx="364" cy="454" rx="13" ry="7" fill="#33373d"/>
<polygon points="308,194 372,194 370,302 310,302" fill="#3d8a6b" stroke="#1a1a1a" stroke-width="5" stroke-linejoin="round"/>
<line x1="310" y1="196" x2="294" y2="302" stroke="#1a1a1a" stroke-width="13.0" stroke-linecap="round"/>
<line x1="370" y1="196" x2="418" y2="218" stroke="#1a1a1a" stroke-width="13.0" stroke-linecap="round"/>
<line x1="340" y1="194" x2="340" y2="163" stroke="#1a1a1a" stroke-width="13.0" stroke-linecap="round"/>
<g transform="translate(0,-3)"><path d="M 310.0 197 L 370.0 197 L 368.0 315 L 312.0 315 Z" fill="#caa46a" stroke="#1a1a1a" stroke-width="4" stroke-linejoin="round"/>
<path d="M 318.0 301 L 362.0 301 L 366.0 425 Q 340.0 439 314.0 425 Z" fill="#6b4a2b" stroke="#1a1a1a" stroke-width="4" stroke-linejoin="round"/>
<line x1="328" y1="315" x2="328" y2="415" stroke="#4a3018" stroke-width="2" stroke-linecap="round"/>
<line x1="352" y1="315" x2="352" y2="415" stroke="#4a3018" stroke-width="2" stroke-linecap="round"/>
<ellipse cx="340" cy="209" rx="34" ry="13" fill="#ffffff" stroke="#1a1a1a" stroke-width="3"/>
<ellipse cx="340" cy="209" rx="25" ry="9" fill="#e23b3b" stroke="#1a1a1a" stroke-width="2"/>
<ellipse cx="340" cy="209" rx="14" ry="6" fill="#1a1a1a" stroke="#1a1a1a" stroke-width="2"/></g>
<line x1="310" y1="196" x2="294" y2="302" stroke="#ffffff" stroke-width="20" stroke-linecap="round"/>
<line x1="310" y1="196" x2="294" y2="302" stroke="#1a1a1a" stroke-width="13.0" stroke-linecap="round"/>
<line x1="370" y1="196" x2="418" y2="218" stroke="#ffffff" stroke-width="20" stroke-linecap="round"/>
<line x1="370" y1="196" x2="418" y2="218" stroke="#1a1a1a" stroke-width="13.0" stroke-linecap="round"/>
<line x1="310" y1="196" x2="250" y2="284" stroke="#ffffff" stroke-width="22" stroke-linecap="round"/>
<line x1="310" y1="196" x2="250" y2="284" stroke="#1a1a1a" stroke-width="15.0" stroke-linecap="round"/>
<line x1="310" y1="196" x2="250" y2="284" stroke="#ffffff" stroke-width="16" stroke-linecap="round"/>
<line x1="310" y1="196" x2="250" y2="284" stroke="#3d8a6b" stroke-width="9.5" stroke-linecap="round"/>
<circle id="h2" data-fig="ma" class="skin" cx="340" cy="127" r="40" fill="#5e3618" stroke="#1a1a1a" stroke-width="6"/>
<path d="M 300.0 127.0 Q 300.0 77.0 340 77.0 Q 380.0 77.0 380.0 127.0 Q 340 100.0 300.0 127.0 Z" fill="#241c14" stroke="#1a1a1a" stroke-width="3" stroke-linejoin="round"/>
<circle cx="327" cy="124" r="4" fill="#1a1a1a" stroke="#1a1a1a" stroke-width="0"/>
<circle cx="353" cy="124" r="4" fill="#1a1a1a" stroke="#1a1a1a" stroke-width="0"/>
<path d="M 326.0 141.0 Q 340 157.0 354.0 141.0" fill="none" stroke="#1a1a1a" stroke-width="4" stroke-linejoin="round"/>
<line x1="310" y1="196" x2="250" y2="284" stroke="#1a1a1a" stroke-width="15.0" stroke-linecap="round"/><line x1="394" y1="120" x2="434" y2="120" stroke="#1a1a1a" stroke-width="18.0" stroke-linecap="round"/><line x1="414" y1="100" x2="414" y2="140" stroke="#1a1a1a" stroke-width="18.0" stroke-linecap="round"/><line x1="310" y1="196" x2="250" y2="284" stroke="#3d8a6b" stroke-width="9.5" stroke-linecap="round"/>

<line x1="394" y1="120" x2="434" y2="120" stroke="#2f9e4a" stroke-width="12.5" stroke-linecap="round"/>
<line x1="414" y1="100" x2="414" y2="140" stroke="#2f9e4a" stroke-width="12.5" stroke-linecap="round"/>
</g></svg>
