<svg data-cover="arms:covered" xmlns="http://www.w3.org/2000/svg" viewBox="0 0 512 512" data-copyright="© 2026 Sensory App House"><!--SAH-COPYRIGHT © 2026 Sensory App House. All rights reserved.--><metadata id="sah-copyright"><rdf:RDF xmlns:rdf="http://www.w3.org/1999/02/22-rdf-syntax-ns#" xmlns:dc="http://purl.org/dc/elements/1.1/" xmlns:cc="http://creativecommons.org/ns#"><cc:Work rdf:about=""><dc:rights><cc:Agent><dc:title>© 2026 Sensory App House. All rights reserved.</dc:title></cc:Agent></dc:rights><dc:creator><cc:Agent><dc:title>Sensory App House (PiCom)</dc:title></cc:Agent></dc:creator><dc:date>2026</dc:date></cc:Work></rdf:RDF></metadata><metadata id="sah">{"v":1,"fig":[["h1","ma"],["h2","ma"]]}</metadata><g data-fit="1" transform="translate(256 256) scale(1.1673) translate(-291.00 -271.00)">
<line x1="135" y1="303" x2="180" y2="455" stroke="#39425c" stroke-width="16.0" stroke-linecap="round"/>
<line x1="165" y1="303" x2="124" y2="455" stroke="#39425c" stroke-width="16.0" stroke-linecap="round"/>
<ellipse cx="180" cy="457" rx="13" ry="7" fill="#33373d"/>
<ellipse cx="124" cy="457" rx="13" ry="7" fill="#33373d"/>
<polygon points="118,197 182,197 180,305 120,305" fill="#caa46a" stroke="#1a1a1a" stroke-width="5" stroke-linejoin="round"/>
<line x1="120" y1="199" x2="106" y2="305" stroke="#1a1a1a" stroke-width="13.0" stroke-linecap="round"/>
<line x1="180" y1="199" x2="200" y2="287" stroke="#1a1a1a" stroke-width="13.0" stroke-linecap="round"/>
<line x1="150" y1="197" x2="150" y2="166" stroke="#1a1a1a" stroke-width="13.0" stroke-linecap="round"/>
<path d="M 120.0 197 L 180.0 197 L 178.0 315 L 122.0 315 Z" fill="#caa46a" stroke="#1a1a1a" stroke-width="4" stroke-linejoin="round"/>
<path d="M 128.0 301 L 172.0 301 L 176.0 425 Q 150.0 439 124.0 425 Z" fill="#6b4a2b" stroke="#1a1a1a" stroke-width="4" stroke-linejoin="round"/>
<line x1="138" y1="315" x2="138" y2="415" stroke="#4a3018" stroke-width="2" stroke-linecap="round"/>
<line x1="162" y1="315" x2="162" y2="415" stroke="#4a3018" stroke-width="2" stroke-linecap="round"/>
<ellipse cx="150" cy="209" rx="34" ry="13" fill="#ffffff" stroke="#1a1a1a" stroke-width="3"/>
<ellipse cx="150" cy="209" rx="25" ry="9" fill="#e23b3b" stroke="#1a1a1a" stroke-width="2"/>
<ellipse cx="150" cy="209" rx="14" ry="6" fill="#1a1a1a" stroke="#1a1a1a" stroke-width="2"/>
<line x1="120" y1="199" x2="106" y2="305" stroke="#ffffff" stroke-width="20" stroke-linecap="round"/>
<line x1="120" y1="199" x2="106" y2="305" stroke="#1a1a1a" stroke-width="13.0" stroke-linecap="round"/>
<line x1="180" y1="199" x2="200" y2="287" stroke="#ffffff" stroke-width="20" stroke-linecap="round"/>
<line x1="180" y1="199" x2="200" y2="287" stroke="#1a1a1a" stroke-width="13.0" stroke-linecap="round"/>
<circle id="h1" data-fig="ma" class="skin" cx="150" cy="130" r="40" fill="#5e3618" stroke="#1a1a1a" stroke-width="6"/>
<path d="M 110.0 130.0 Q 110.0 80.0 150 80.0 Q 190.0 80.0 190.0 130.0 Q 150 103.0 110.0 130.0 Z" fill="#241c14" stroke="#1a1a1a" stroke-width="3" stroke-linejoin="round"/>
<line x1="251" y1="303" x2="296" y2="455" stroke="#39425c" stroke-width="16.0" stroke-linecap="round"/>
<line x1="281" y1="303" x2="240" y2="455" stroke="#39425c" stroke-width="16.0" stroke-linecap="round"/>
<ellipse cx="296" cy="457" rx="13" ry="7" fill="#33373d"/>
<ellipse cx="240" cy="457" rx="13" ry="7" fill="#33373d"/>
<polygon points="234,197 298,197 296,305 236,305" fill="#3fae5a" stroke="#1a1a1a" stroke-width="5" stroke-linejoin="round"/>
<line x1="236" y1="199" x2="222" y2="305" stroke="#1a1a1a" stroke-width="13.0" stroke-linecap="round"/>
<line x1="296" y1="199" x2="316" y2="287" stroke="#1a1a1a" stroke-width="13.0" stroke-linecap="round"/>
<line x1="266" y1="197" x2="266" y2="166" stroke="#1a1a1a" stroke-width="13.0" stroke-linecap="round"/>
<path d="M 236.0 197 L 296.0 197 L 294.0 315 L 238.0 315 Z" fill="#caa46a" stroke="#1a1a1a" stroke-width="4" stroke-linejoin="round"/>
<path d="M 244.0 301 L 288.0 301 L 292.0 425 Q 266.0 439 240.0 425 Z" fill="#6b4a2b" stroke="#1a1a1a" stroke-width="4" stroke-linejoin="round"/>
<line x1="254" y1="315" x2="254" y2="415" stroke="#4a3018" stroke-width="2" stroke-linecap="round"/>
<line x1="278" y1="315" x2="278" y2="415" stroke="#4a3018" stroke-width="2" stroke-linecap="round"/>
<ellipse cx="266" cy="209" rx="34" ry="13" fill="#ffffff" stroke="#1a1a1a" stroke-width="3"/>
<ellipse cx="266" cy="209" rx="25" ry="9" fill="#e23b3b" stroke="#1a1a1a" stroke-width="2"/>
<ellipse cx="266" cy="209" rx="14" ry="6" fill="#1a1a1a" stroke="#1a1a1a" stroke-width="2"/>
<line x1="236" y1="199" x2="222" y2="305" stroke="#ffffff" stroke-width="20" stroke-linecap="round"/>
<line x1="236" y1="199" x2="222" y2="305" stroke="#1a1a1a" stroke-width="13.0" stroke-linecap="round"/>
<line x1="296" y1="199" x2="316" y2="287" stroke="#ffffff" stroke-width="20" stroke-linecap="round"/>
<line x1="296" y1="199" x2="316" y2="287" stroke="#1a1a1a" stroke-width="13.0" stroke-linecap="round"/>
<circle id="h2" data-fig="ma" class="skin" cx="266" cy="130" r="40" fill="#5e3618" stroke="#1a1a1a" stroke-width="6"/>
<path d="M 226.0 130.0 Q 226.0 80.0 266 80.0 Q 306.0 80.0 306.0 130.0 Q 266 103.0 226.0 130.0 Z" fill="#241c14" stroke="#1a1a1a" stroke-width="3" stroke-linejoin="round"/>
<path d="M 322.0 263.0 L 432.0 263.0 L 432.0 277.0 L 470.0 250.0 L 432.0 223.0 L 432.0 237.0 L 322.0 237.0 Z" fill="#3aa6d6" stroke="#1a1a1a" stroke-width="4" stroke-linejoin="round" stroke-linecap="round"/>


</g></svg>
