<svg data-cover="arms:covered" xmlns="http://www.w3.org/2000/svg" viewBox="74.40 52.21 438.30 438.30"><metadata id="sah">{"v":1,"fig":[["h1","ma"]]}</metadata>
<line x1="217" y1="303" x2="208" y2="455" stroke="#39425c" stroke-width="16.0" stroke-linecap="round"/>
<line x1="247" y1="303" x2="256" y2="455" stroke="#39425c" stroke-width="16.0" stroke-linecap="round"/>
<ellipse cx="208" cy="457" rx="13" ry="7" fill="#33373d"/>
<ellipse cx="256" cy="457" rx="13" ry="7" fill="#33373d"/>
<polygon points="200,197 264,197 262,305 202,305" fill="#caa46a" stroke="#1a1a1a" stroke-width="5" stroke-linejoin="round"/>
<line x1="202" y1="199" x2="198" y2="271" stroke="#1a1a1a" stroke-width="13.0" stroke-linecap="round"/>
<line x1="262" y1="199" x2="266" y2="271" stroke="#1a1a1a" stroke-width="13.0" stroke-linecap="round"/>
<line x1="232" y1="197" x2="232" y2="166" stroke="#1a1a1a" stroke-width="13.0" stroke-linecap="round"/>
<path d="M 202.0 197 L 262.0 197 L 260.0 315 L 204.0 315 Z" fill="#caa46a" stroke="#1a1a1a" stroke-width="4" stroke-linejoin="round"/>
<path d="M 210.0 301 L 254.0 301 L 258.0 425 Q 232.0 439 206.0 425 Z" fill="#6b4a2b" stroke="#1a1a1a" stroke-width="4" stroke-linejoin="round"/>
<line x1="220" y1="315" x2="220" y2="415" stroke="#4a3018" stroke-width="2" stroke-linecap="round"/>
<line x1="244" y1="315" x2="244" y2="415" stroke="#4a3018" stroke-width="2" stroke-linecap="round"/>
<ellipse cx="232" cy="209" rx="34" ry="13" fill="#ffffff" stroke="#1a1a1a" stroke-width="3"/>
<ellipse cx="232" cy="209" rx="25" ry="9" fill="#e23b3b" stroke="#1a1a1a" stroke-width="2"/>
<ellipse cx="232" cy="209" rx="14" ry="6" fill="#1a1a1a" stroke="#1a1a1a" stroke-width="2"/>
<line x1="202" y1="199" x2="198" y2="271" stroke="#ffffff" stroke-width="20" stroke-linecap="round"/>
<line x1="202" y1="199" x2="198" y2="271" stroke="#1a1a1a" stroke-width="13.0" stroke-linecap="round"/>
<line x1="262" y1="199" x2="266" y2="271" stroke="#ffffff" stroke-width="20" stroke-linecap="round"/>
<line x1="262" y1="199" x2="266" y2="271" stroke="#1a1a1a" stroke-width="13.0" stroke-linecap="round"/>
<circle id="h1" data-fig="ma" class="skin" cx="232" cy="130" r="40" fill="#5e3618" stroke="#1a1a1a" stroke-width="6"/>
<path d="M 192.0 130.0 Q 192.0 80.0 232 80.0 Q 272.0 80.0 272.0 130.0 Q 232 103.0 192.0 130.0 Z" fill="#241c14" stroke="#1a1a1a" stroke-width="3" stroke-linejoin="round"/>
<circle cx="219" cy="127" r="4" fill="#1a1a1a" stroke="#1a1a1a" stroke-width="0"/>
<circle cx="245" cy="127" r="4" fill="#1a1a1a" stroke="#1a1a1a" stroke-width="0"/>
<line x1="220" y1="148" x2="244" y2="148" stroke="#1a1a1a" stroke-width="4" stroke-linecap="round"/>
<line x1="354" y1="150" x2="367" y2="166" stroke="#1a1a1a" stroke-width="16.0" stroke-linecap="round"/><line x1="367" y1="166" x2="394" y2="132" stroke="#1a1a1a" stroke-width="16.0" stroke-linecap="round"/><line x1="354" y1="150" x2="367" y2="166" stroke="#2f9e4a" stroke-width="10.5" stroke-linecap="round"/>
<line x1="367" y1="166" x2="394" y2="132" stroke="#2f9e4a" stroke-width="10.5" stroke-linecap="round"/>
<line x1="365" y1="96" x2="379" y2="96" stroke="#f0b400" stroke-width="3" stroke-linecap="round"/>
<line x1="372" y1="89" x2="372" y2="103" stroke="#f0b400" stroke-width="3" stroke-linecap="round"/>
<line x1="333" y1="120" x2="347" y2="120" stroke="#f0b400" stroke-width="3" stroke-linecap="round"/>
<line x1="340" y1="113" x2="340" y2="127" stroke="#f0b400" stroke-width="3" stroke-linecap="round"/>
</svg>
