<svg data-cover="arms:covered" xmlns="http://www.w3.org/2000/svg" viewBox="80.37 52.21 438.30 438.30"><metadata id="sah">{"v":1,"fig":[["h1","fa"]]}</metadata>
<line x1="241" y1="375" x2="216" y2="377" stroke="#39425c" stroke-width="16.0" stroke-linecap="round"/>
<line x1="216" y1="377" x2="218" y2="455" stroke="#39425c" stroke-width="16.0" stroke-linecap="round"/>
<line x1="271" y1="375" x2="296" y2="377" stroke="#39425c" stroke-width="16.0" stroke-linecap="round"/>
<line x1="296" y1="377" x2="294" y2="455" stroke="#39425c" stroke-width="16.0" stroke-linecap="round"/>
<ellipse cx="218" cy="457" rx="13" ry="7" fill="#33373d"/>
<ellipse cx="294" cy="457" rx="13" ry="7" fill="#33373d"/>
<polygon points="224,197 288,197 286,377 226,377" fill="#ffffff" stroke="#1a1a1a" stroke-width="5" stroke-linejoin="round"/>
<line x1="226" y1="199" x2="226" y2="345" stroke="#1a1a1a" stroke-width="13.0" stroke-linecap="round"/>
<line x1="286" y1="199" x2="286" y2="345" stroke="#1a1a1a" stroke-width="13.0" stroke-linecap="round"/>
<line x1="256" y1="197" x2="256" y2="166" stroke="#1a1a1a" stroke-width="13.0" stroke-linecap="round"/>
<path d="M 209.0 184.0 L 209.0 128.0 Q 209.0 76.0 256.0 76.0 Q 303.0 76.0 303.0 128.0 L 303.0 184.0 L 290.0 184.0 L 290.0 130.0 Q 290.0 96.0 256.0 96.0 Q 222.0 96.0 222.0 130.0 L 222.0 184.0 Z" fill="#5a3a1f" stroke="#1a1a1a" stroke-width="3"/>
<path d="M 224.0 197 L 288.0 197 L 286.0 299 L 226.0 299 Z" fill="#1a1a1a" stroke="#1a1a1a" stroke-width="4" stroke-linejoin="round"/>
<line x1="226" y1="215" x2="286" y2="215" stroke="#e23b3b" stroke-width="5" stroke-linecap="round"/>
<line x1="226" y1="239" x2="286" y2="239" stroke="#e23b3b" stroke-width="5" stroke-linecap="round"/>
<line x1="226" y1="263" x2="286" y2="263" stroke="#e23b3b" stroke-width="5" stroke-linecap="round"/>
<line x1="226" y1="287" x2="286" y2="287" stroke="#e23b3b" stroke-width="5" stroke-linecap="round"/>
<line x1="226" y1="227" x2="286" y2="227" stroke="#ffd24a" stroke-width="5" stroke-linecap="round"/>
<line x1="226" y1="251" x2="286" y2="251" stroke="#ffd24a" stroke-width="5" stroke-linecap="round"/>
<line x1="226" y1="275" x2="286" y2="275" stroke="#ffd24a" stroke-width="5" stroke-linecap="round"/>
<path d="M 226.0 299 L 286.0 299 L 300.0 443 L 212.0 443 Z" fill="#5a3a22" stroke="#1a1a1a" stroke-width="4" stroke-linejoin="round"/>
<line x1="226" y1="335" x2="286" y2="335" stroke="#3a2614" stroke-width="2" stroke-linecap="round"/>
<ellipse cx="256" cy="203" rx="30" ry="11" fill="#ffffff" stroke="#1a1a1a" stroke-width="3"/>
<ellipse cx="256" cy="203" rx="22" ry="8" fill="#e23b3b" stroke="#1a1a1a" stroke-width="2"/>
<ellipse cx="256" cy="203" rx="12" ry="5" fill="#3b82d6" stroke="#1a1a1a" stroke-width="2"/>
<line x1="226" y1="199" x2="226" y2="345" stroke="#ffffff" stroke-width="20" stroke-linecap="round"/>
<line x1="226" y1="199" x2="226" y2="345" stroke="#1a1a1a" stroke-width="13.0" stroke-linecap="round"/>
<line x1="286" y1="199" x2="286" y2="345" stroke="#ffffff" stroke-width="20" stroke-linecap="round"/>
<line x1="286" y1="199" x2="286" y2="345" stroke="#1a1a1a" stroke-width="13.0" stroke-linecap="round"/>
<path d="M 209.0 184.0 L 209.0 128.0 Q 209.0 76.0 256.0 76.0 Q 303.0 76.0 303.0 128.0 L 303.0 184.0 L 290.0 184.0 L 290.0 130.0 Q 290.0 96.0 256.0 96.0 Q 222.0 96.0 222.0 130.0 L 222.0 184.0 Z" fill="#241c14" stroke="#1a1a1a" stroke-width="3"/>
<circle id="h1" data-fig="fa" class="skin" cx="256" cy="130" r="40" fill="#5e3618" stroke="#1a1a1a" stroke-width="6"/>
<path d="M 218.0 96.0 Q 256.0 82.0 294.0 96.0 Q 256.0 92.0 218.0 96.0 Z" fill="#241c14" stroke="#1a1a1a" stroke-width="3"/>
<polygon points="288,370 372,370 330,439" fill="#e0473c" stroke="#1a1a1a" stroke-width="3" stroke-linejoin="round"/>
<ellipse cx="330" cy="370" rx="42" ry="14" fill="#f0a020" stroke="#1a1a1a" stroke-width="3"/>
<line x1="330" y1="370" x2="330" y2="338" stroke="#caa015" stroke-width="5" stroke-linecap="round"/>
<path d="M 395.9 369.0 A 66.0 66.0 0 1 1 323.3 314.0 L 322.3 305.1 L 343.9 317.7 L 325.7 334.9 L 324.7 326.0 A 54.0 54.0 0 1 0 384.1 371.0 Z" fill="#2b6fb0" stroke="#1a1a1a" stroke-width="2.5" stroke-linejoin="round"/>

</svg>
